<?xml version="1.0" standalone="no"?>
<!DOCTYPE svg PUBLIC "-//W3C//DTD SVG 20010904//EN"
 "http://www.w3.org/TR/2001/REC-SVG-20010904/DTD/svg10.dtd">
<svg version="1.0" xmlns="http://www.w3.org/2000/svg"
 width="1200.000000pt" height="515.000000pt" viewBox="0 0 1200.000000 515.000000"
 preserveAspectRatio="xMidYMid meet">

<g transform="translate(0.000000,515.000000) scale(0.100000,-0.100000)"
fill="#000000" stroke="none">
<path d="M998 4750 l-618 -5 -59 -60 -59 -60 9 -395 c4 -217 12 -719 18 -1115
6 -396 13 -853 16 -1015 3 -162 10 -599 16 -970 5 -371 12 -682 15 -691 4 -14
27 -18 147 -23 454 -18 6061 -23 7887 -7 608 6 1592 13 2187 17 774 5 1085 10
1092 18 5 6 12 146 15 311 4 165 11 444 16 620 5 176 14 484 20 685 5 201 12
430 15 510 3 80 16 555 30 1055 13 501 26 926 29 946 2 20 1 41 -3 46 -8 13
-142 108 -162 116 -36 12 -2809 24 -4611 19 -804 -2 -1006 -5 -1002 -15 3 -9
-12 -13 -56 -14 -63 -2 -83 13 -27 20 17 2 -17 4 -78 4 -60 0 -102 -1 -92 -4
39 -10 13 -22 -45 -22 -78 1 -98 12 -38 20 27 4 -8 7 -87 7 -83 1 -133 -2
-133 -8 0 -5 -12 -10 -27 -10 -22 0 -25 2 -13 10 11 7 2 9 -30 9 -35 -1 -40
-3 -20 -8 24 -7 24 -7 3 -13 -12 -3 -43 -3 -70 0 -40 5 -44 7 -23 13 14 4 -24
7 -85 7 -60 0 -102 -2 -92 -5 9 -2 17 -8 17 -12 0 -9 -130 -1 -150 9 -9 5 -63
10 -120 13 -58 2 -88 2 -67 0 20 -2 37 -9 37 -14 0 -7 -30 -9 -80 -7 -44 2
-80 6 -80 11 0 11 -129 8 -151 -3 -11 -7 -19 -7 -19 -1 0 6 -352 10 -947 11
-522 1 -1164 3 -1428 3 -264 1 -758 0 -1097 -3z m4212 -20 c11 -7 3 -10 -30
-10 -33 0 -41 3 -30 10 8 5 22 10 30 10 8 0 22 -5 30 -10z m325 0 c4 -6 -10
-9 -37 -9 l-43 2 35 7 c19 4 36 8 37 9 1 0 5 -3 8 -9z m698 3 c-7 -2 -19 -2
-25 0 -7 3 -2 5 12 5 14 0 19 -2 13 -5z m70 0 c-7 -2 -21 -2 -30 0 -10 3 -4 5
12 5 17 0 24 -2 18 -5z m352 -3 c-8 -13 -35 -13 -55 0 -11 7 -5 10 23 10 23 0
36 -4 32 -10z m225 0 c0 -5 -7 -10 -15 -10 -8 0 -15 5 -15 10 0 6 7 10 15 10
8 0 15 -4 15 -10z m-2737 -87 c-13 -2 -33 -2 -45 0 -13 2 -3 4 22 4 25 0 35
-2 23 -4z m145 0 c-10 -2 -26 -2 -35 0 -10 3 -2 5 17 5 19 0 27 -2 18 -5z
m1600 0 c-285 -2 -751 -2 -1035 0 -285 1 -52 2 517 2 569 0 802 -1 518 -2z
m1040 0 c-21 -2 -57 -2 -80 0 -24 2 -7 4 37 4 44 0 63 -2 43 -4z m-2732 -271
c-18 -16 -18 -16 -6 6 6 13 14 21 18 18 3 -4 -2 -14 -12 -24z m-66 14 c0 -2
-7 -9 -15 -16 -13 -11 -14 -10 -9 4 5 14 24 23 24 12z m142 -18 c-7 -7 -12 -8
-12 -2 0 6 3 14 7 17 3 4 9 5 12 2 2 -3 -1 -11 -7 -17z m88 7 c-7 -9 -15 -13
-19 -10 -3 3 1 10 9 15 21 14 24 12 10 -5z m73 0 c-3 -9 -8 -14 -10 -11 -3 3
-2 9 2 15 9 16 15 13 8 -4z m80 0 c-3 -9 -8 -14 -10 -11 -3 3 -2 9 2 15 9 16
15 13 8 -4z m160 0 c-3 -9 -8 -14 -10 -11 -3 3 -2 9 2 15 9 16 15 13 8 -4z
m79 -7 c-7 -7 -12 -8 -12 -2 0 6 3 14 7 17 3 4 9 5 12 2 2 -3 -1 -11 -7 -17z
m81 7 c-3 -9 -8 -14 -10 -11 -3 3 -2 9 2 15 9 16 15 13 8 -4z m-3325 -103 c13
11 14 11 11 -1 -3 -8 -14 -20 -25 -28 -19 -12 -20 -11 -18 9 3 32 5 35 11 20
4 -10 8 -10 21 0z m1012 4 c0 -3 -4 -8 -10 -11 -5 -3 -10 -1 -10 4 0 6 5 11
10 11 6 0 10 -2 10 -4z m1174 -5 c3 -5 -1 -11 -9 -14 -9 -4 -12 -1 -8 9 6 16
10 17 17 5z m440 -20 c3 -5 -3 -11 -15 -14 -16 -4 -18 -3 -8 9 13 16 16 17 23
5z m1736 -7 c0 -2 -9 -8 -19 -13 -16 -9 -18 -8 -14 8 3 12 11 17 19 14 8 -3
14 -7 14 -9z m402 -6 c-7 -7 -12 -8 -12 -2 0 14 12 26 19 19 2 -3 -1 -11 -7
-17z m2148 12 c0 -5 -4 -10 -10 -10 -5 0 -10 5 -10 10 0 6 5 10 10 10 6 0 10
-4 10 -10z m857 4 c-3 -3 -12 -4 -19 -1 -8 3 -5 6 6 6 11 1 17 -2 13 -5z
m-5897 -16 c0 -4 -4 -8 -9 -8 -6 0 -12 4 -15 8 -3 5 1 9 9 9 8 0 15 -4 15 -9z
m660 2 c0 -5 -4 -10 -10 -10 -5 0 -10 5 -10 10 0 6 5 10 10 10 6 0 10 -4 10
-10z m957 -12 c-3 -8 -6 -5 -6 6 -1 11 2 17 5 13 3 -3 4 -12 1 -19z m2563 6
c0 -8 -5 -12 -10 -9 -6 4 -8 11 -5 16 9 14 15 11 15 -7z m-4300 -3 c0 -5 -13
-11 -30 -13 -30 -5 -41 6 -17 15 20 9 47 8 47 -2z m6860 -17 c0 -8 -5 -12 -10
-9 -6 4 -8 11 -5 16 9 14 15 11 15 -7z m-6410 -6 c-8 -7 -19 -19 -25 -26 -7
-9 -10 -6 -11 13 -2 21 3 25 24 25 22 0 24 -2 12 -12z m414 -12 c-6 -16 -24
-23 -24 -8 0 10 22 33 27 28 2 -2 1 -11 -3 -20z m2592 -23 c-5 -12 -9 -13 -21
-3 -14 11 -13 15 2 30 15 14 19 14 21 3 2 -8 1 -21 -2 -30z m1269 17 c7 -32
-10 -78 -18 -50 -3 8 -8 30 -11 48 -7 42 20 45 29 2z m-5175 7 c0 -8 -7 -14
-15 -14 -25 0 -17 17 13 26 1 1 2 -5 2 -12z m1685 -56 c-3 -5 -1 -12 5 -16 6
-3 13 1 16 9 8 21 44 21 44 1 0 -9 7 -18 15 -21 22 -9 18 -32 -5 -39 -15 -5
-19 -12 -15 -26 4 -11 2 -19 -6 -19 -9 0 -9 -3 1 -15 6 -8 9 -19 5 -25 -13
-20 -23 1 -21 40 4 44 -5 55 -51 65 -36 7 -43 25 -29 72 l9 32 19 -24 c11 -14
17 -29 13 -34z m915 49 c0 -5 -2 -10 -4 -10 -3 0 -8 5 -11 10 -3 6 -1 10 4 10
6 0 11 -4 11 -10z m451 3 c1 -14 2 -67 0 -102 -1 -26 -4 -32 -12 -24 -6 6 -17
9 -25 6 -10 -4 -12 4 -7 31 4 29 2 36 -11 36 -9 0 -16 5 -16 11 0 5 4 8 9 4 6
-3 18 6 28 19 18 25 32 33 34 19z m2999 3 c0 -3 -4 -8 -10 -11 -5 -3 -10 -1
-10 4 0 6 5 11 10 11 6 0 10 -2 10 -4z m-3857 -20 c-6 -25 -11 -29 -26 -23
-26 10 -21 38 6 33 12 -1 21 -6 20 -10z m4697 5 c0 -5 -7 -12 -16 -15 -14 -5
-15 -4 -4 9 14 17 20 19 20 6z m-8215 -20 c3 -5 1 -12 -4 -15 -5 -3 -11 1 -15
9 -6 16 9 21 19 6z m2625 -21 c0 -14 -14 -12 -28 2 -19 19 -14 30 8 18 11 -6
20 -15 20 -20z m4842 8 c-7 -7 -12 -8 -12 -2 0 14 12 26 19 19 2 -3 -1 -11 -7
-17z m1318 12 c0 -5 -4 -10 -9 -10 -6 0 -13 5 -16 10 -3 6 1 10 9 10 9 0 16
-4 16 -10z m-7010 -10 c0 -5 -7 -10 -16 -10 -8 0 -12 5 -9 10 3 6 10 10 16 10
5 0 9 -4 9 -10z m4450 1 c0 -5 -7 -12 -16 -15 -24 -9 -28 -7 -14 9 14 17 30
20 30 6z m2830 -20 c0 -33 -16 -49 -33 -32 -8 8 -8 11 1 11 7 0 12 11 12 25 0
14 5 25 10 25 6 0 10 -13 10 -29z m-9500 9 c0 -5 -4 -10 -9 -10 -6 0 -13 5
-16 10 -3 6 1 10 9 10 9 0 16 -4 16 -10z m2664 1 c8 -13 -3 -19 -24 -14 -11 3
-17 9 -14 14 7 11 31 12 38 0z m2566 -11 c0 -11 -4 -20 -10 -20 -5 0 -10 9
-10 20 0 11 5 20 10 20 6 0 10 -9 10 -20z m-1313 4 c-3 -3 -12 -4 -19 -1 -8 3
-5 6 6 6 11 1 17 -2 13 -5z m1747 -19 c3 -8 1 -15 -4 -15 -6 0 -10 7 -10 15 0
8 2 15 4 15 2 0 6 -7 10 -15z m-3900 -1 c9 -3 13 -10 10 -15 -8 -14 -21 -11
-28 6 -6 17 -4 18 18 9z m1326 -19 c0 -8 8 -19 18 -25 13 -8 4 -9 -38 -6 -30
3 -63 5 -73 6 -10 0 -16 4 -13 8 3 5 21 7 42 6 29 -3 37 1 41 16 6 21 23 17
23 -5z m140 15 c0 -5 -9 -10 -20 -10 -11 0 -20 5 -20 10 0 6 9 10 20 10 11 0
20 -4 20 -10z m702 -48 c-22 -6 -39 16 -19 24 9 3 18 14 18 23 1 9 4 3 8 -14
5 -21 3 -31 -7 -33z m161 45 c4 3 7 2 7 -4 0 -12 -23 -23 -48 -23 -16 1 -16 2
0 14 10 7 14 17 10 22 -4 4 0 3 9 -4 9 -6 19 -9 22 -5z m52 -7 c4 -6 12 -10
18 -9 34 4 48 -4 17 -10 -42 -8 -60 -4 -60 15 0 16 16 19 25 4z m4095 -26 c0
-9 -12 -14 -36 -14 l-36 0 23 24 c24 25 49 20 49 -10z m-6030 7 c0 -11 -5 -32
-11 -48 -7 -18 -7 -29 0 -31 5 -2 7 -10 4 -18 -7 -19 -19 -18 -19 4 -1 9 -2
22 -4 27 -2 6 0 27 4 48 9 39 26 51 26 18z m1439 8 c17 -6 31 -15 31 -20 0 -5
7 -9 15 -9 8 0 15 -4 15 -9 0 -9 -108 -7 -117 2 -4 5 14 47 21 47 2 0 17 -5
35 -11z m4156 1 c-3 -5 -10 -10 -16 -10 -5 0 -9 5 -9 10 0 6 7 10 16 10 8 0
12 -4 9 -10z m-6801 -33 c66 -30 91 -56 126 -130 23 -47 29 -77 35 -165 12
-194 -16 -288 -139 -481 -46 -72 -52 -86 -38 -94 4 -2 1 -2 -6 -1 -6 2 -24
-15 -39 -37 -43 -66 -313 -311 -383 -348 l-62 -33 8 -132 c9 -171 18 -238 28
-211 5 11 20 52 34 90 14 39 36 87 49 107 13 21 23 42 23 47 0 6 24 35 54 66
55 56 106 85 148 85 21 0 88 -55 88 -73 0 -4 9 -27 19 -50 60 -133 63 -150 66
-362 2 -131 7 -193 24 -269 12 -55 24 -103 27 -108 6 -9 27 -5 77 14 16 6 24
14 19 17 -15 10 -24 49 -12 56 6 4 18 -11 29 -35 14 -31 21 -38 29 -28 46 56
184 557 164 595 -22 40 -44 151 -44 218 1 61 14 128 50 250 16 52 72 125 141
182 61 51 69 54 106 49 22 -3 49 -6 60 -6 11 -1 15 -4 10 -8 -6 -4 -27 -39
-47 -78 -32 -59 -40 -90 -53 -185 -9 -63 -25 -157 -36 -209 -11 -52 -23 -108
-26 -124 -13 -67 42 -196 84 -196 61 0 199 114 238 196 15 31 25 57 23 59 -2
1 -21 12 -44 23 -72 37 -143 100 -169 152 -28 55 -33 138 -14 216 23 91 115
115 223 59 64 -33 83 -60 112 -159 19 -65 21 -98 9 -168 l-8 -47 56 13 c58 14
129 54 185 105 30 28 32 34 33 103 1 139 7 263 14 313 7 46 7 49 -9 36 -19
-16 -32 -9 -20 11 13 20 11 57 -3 62 -18 7 -16 26 3 26 10 0 13 6 9 19 -4 15
1 20 27 26 18 4 46 6 62 5 37 -2 86 -38 86 -62 0 -12 6 -18 16 -16 10 2 19 -3
22 -11 3 -9 -1 -11 -18 -6 -20 6 -21 5 -10 -14 6 -12 15 -19 19 -17 4 3 8 0 9
-7 1 -20 12 -398 12 -457 1 -30 4 -48 7 -40 11 29 64 155 78 185 8 17 32 68
53 115 48 104 115 196 180 248 44 34 55 38 98 36 71 -3 124 -27 124 -56 0 -13
5 -29 11 -35 14 -14 13 -240 -1 -278 -28 -74 -1 -53 31 25 12 30 49 101 81
156 32 56 62 113 67 127 15 40 156 203 205 236 39 27 53 31 113 31 72 0 136
-22 163 -55 20 -24 19 -219 -3 -295 -29 -106 -69 -205 -95 -239 -17 -23 -20
-33 -10 -29 14 6 15 -6 12 -90 -2 -53 -8 -135 -14 -182 -6 -47 -9 -145 -6
-218 6 -147 24 -203 73 -225 22 -10 28 -8 45 13 29 35 84 149 115 233 14 40
40 101 58 137 18 36 45 103 60 150 16 47 37 105 49 130 11 25 21 65 21 90 1
25 5 61 8 80 7 34 9 36 42 32 19 -2 35 0 35 4 0 14 -14 31 -30 37 -9 3 -4 6
13 6 22 1 27 -3 27 -24 0 -16 6 -25 16 -25 9 0 31 -7 50 -16 19 -9 37 -14 41
-11 8 9 -17 38 -27 32 -4 -3 -10 2 -14 10 -7 18 5 26 32 19 14 -4 19 -11 15
-22 -5 -14 -3 -15 8 -4 23 21 42 14 21 -8 -16 -18 -18 -28 -11 -73 5 -28 9
-104 9 -167 -1 -104 3 -134 25 -207 5 -16 3 -25 -9 -29 -9 -3 -16 -11 -16 -16
0 -6 7 -8 15 -4 17 6 18 4 9 -19 -5 -13 -8 -14 -15 -3 -7 11 -9 11 -9 0 0 -13
23 -42 34 -42 3 0 6 11 6 24 0 46 9 55 41 44 44 -15 96 12 169 88 33 34 60 58
60 52 0 -6 6 -5 15 2 10 8 13 21 9 33 -4 13 -2 17 5 13 17 -11 13 -41 -8 -60
-15 -13 -20 -14 -25 -4 -3 7 -3 1 0 -14 5 -24 -3 -36 -67 -98 -95 -90 -134
-109 -222 -105 -36 2 -77 7 -89 10 -30 10 -88 53 -88 67 0 6 -7 16 -16 22 -8
7 -24 43 -34 81 -10 39 -20 63 -23 55 -3 -8 -15 -44 -26 -80 -12 -36 -28 -90
-35 -121 -7 -31 -33 -102 -57 -158 -39 -90 -52 -110 -111 -167 -61 -57 -72
-64 -110 -65 -158 -5 -231 64 -279 261 -19 80 -23 122 -23 265 0 190 10 263
75 520 22 88 42 182 45 210 l4 50 -32 -36 c-74 -80 -128 -148 -128 -160 0 -5
8 -5 17 -2 15 6 16 5 3 -9 -8 -9 -17 -12 -18 -7 -2 5 -17 -3 -33 -18 -49 -46
-98 -118 -125 -185 -28 -69 -27 -66 -112 -258 -74 -167 -92 -222 -92 -277 0
-36 -3 -43 -20 -43 -14 0 -20 -7 -20 -21 0 -16 -4 -19 -22 -14 -54 16 -83 42
-100 88 -30 80 -32 168 -8 302 57 321 81 514 54 439 -4 -10 -20 -34 -35 -52
-68 -77 -215 -440 -239 -587 -11 -66 -55 -158 -96 -202 -28 -29 -38 -34 -61
-29 -16 4 -45 9 -66 13 -23 3 -44 14 -52 27 -13 22 -35 180 -35 260 0 25 -3
46 -6 46 -4 0 -27 -15 -53 -34 -70 -51 -127 -76 -183 -82 -63 -6 -71 -12 -87
-66 -28 -93 -150 -242 -224 -273 -31 -13 -41 -13 -86 1 -29 8 -78 30 -109 49
-55 33 -57 33 -59 12 -11 -95 -32 -181 -73 -295 l-48 -133 15 -65 c14 -63 16
-65 34 -48 10 9 16 21 12 27 -4 6 0 8 10 4 10 -4 24 -10 34 -14 11 -4 14 -3 9
5 -4 7 -13 12 -20 12 -12 0 -30 39 -22 47 2 2 16 -2 32 -8 16 -7 37 -11 47
-10 9 1 17 -3 17 -8 0 -6 -10 -11 -22 -11 -21 0 -19 -3 15 -35 43 -40 62 -44
70 -15 5 20 37 29 37 10 0 -5 6 -7 14 -4 26 10 30 -19 5 -38 l-23 -20 29 4
c21 2 31 10 35 28 4 17 12 24 24 22 10 -2 29 7 43 20 20 19 25 20 33 8 5 -8
10 -25 11 -37 2 -36 3 -41 12 -49 4 -4 7 -13 7 -21 0 -9 -18 -13 -67 -13 -44
-1 -75 -6 -87 -15 -19 -15 -19 -15 5 -16 24 -2 24 -2 1 -6 -19 -4 -21 -7 -11
-19 9 -11 8 -14 -5 -14 -11 0 -15 -7 -12 -22 2 -13 -1 -31 -6 -42 -7 -13 -6
-21 3 -27 12 -8 12 -10 0 -18 -7 -5 -10 -14 -7 -20 5 -7 -2 -11 -18 -11 -14 0
-26 -4 -26 -10 0 -5 11 -10 25 -10 36 0 31 -13 -11 -26 -28 -9 -38 -9 -50 3
-17 18 -18 25 -2 41 10 10 10 15 1 20 -7 5 -11 24 -8 50 2 23 0 42 -5 42 -5 0
-7 7 -4 15 9 21 -26 19 -42 -2 -9 -14 -10 -21 -1 -32 10 -12 9 -14 -5 -8 -13
4 -18 1 -20 -11 -1 -17 -4 -31 -8 -44 -1 -5 -3 -12 -4 -17 0 -5 -4 -12 -8 -16
-4 -4 -4 -14 -1 -22 8 -21 -17 -34 -34 -18 -18 18 -16 25 5 25 13 0 14 2 4 9
-7 4 -15 28 -17 52 -2 24 -5 46 -6 49 -1 3 -1 8 0 13 0 4 -5 7 -11 7 -9 0 -9
3 1 9 19 12 24 61 6 61 -18 0 -30 -20 -13 -20 8 0 5 -5 -5 -11 -11 -6 -32 -9
-48 -7 -22 3 -28 1 -25 -8 3 -8 0 -16 -6 -20 -7 -4 -5 -10 6 -16 15 -8 15 -11
1 -25 -9 -9 -14 -22 -11 -29 3 -8 0 -14 -7 -15 -8 0 -9 -2 -1 -5 9 -4 9 -13 1
-34 -11 -30 -29 -36 -94 -32 -13 0 -23 -3 -23 -9 0 -8 51 -14 93 -10 9 1 17
-3 17 -8 0 -7 -24 -11 -58 -11 -62 0 -78 -6 -63 -24 6 -7 2 -11 -13 -12 -20
-2 -22 3 -21 55 0 31 -4 64 -10 73 -12 22 -35 24 -35 3 0 -8 -4 -15 -10 -15
-14 0 -13 13 3 29 10 11 10 14 0 18 -7 3 -13 20 -13 39 0 24 -5 34 -15 34 -18
0 -20 -17 -2 -23 6 -2 9 -7 6 -11 -12 -13 -45 9 -45 31 0 14 -13 33 -34 49
-27 20 -30 25 -13 21 12 -3 30 1 40 9 16 12 8 13 -59 14 -72 0 -95 -9 -67 -25
17 -11 -19 -44 -42 -38 -24 7 -24 12 -1 30 9 8 12 12 5 9 -6 -4 -13 -2 -15 3
-1 5 -20 11 -40 12 -28 3 -42 -2 -53 -16 -16 -20 -16 -20 -10 3 l6 22 -293 2
c-161 2 -341 1 -401 -1 -80 -2 -112 0 -124 10 -13 11 -17 11 -20 2 -4 -10 -10
-10 -26 -2 -29 16 -28 14 -21 33 7 19 30 21 37 4 2 -7 8 -9 13 -5 5 4 4 11 -2
15 -6 4 -14 19 -18 35 -5 20 -3 27 9 27 8 0 15 -7 15 -15 0 -43 87 -75 97 -35
6 22 23 27 24 8 0 -10 2 -10 6 0 8 20 33 14 33 -8 0 -11 5 -20 10 -20 6 0 10
5 10 10 0 6 12 8 27 6 34 -7 45 1 33 23 -8 16 -6 17 16 13 14 -2 23 -7 20 -9
-3 -3 2 -12 10 -20 18 -18 112 -13 124 6 5 10 9 9 13 -3 4 -9 13 -13 21 -10 8
3 17 1 21 -5 3 -6 0 -11 -7 -11 -10 0 -10 -2 1 -9 8 -6 24 -6 38 0 12 5 23 6
23 2 0 -4 9 3 20 15 16 17 19 30 14 57 -4 23 -2 35 5 35 6 0 11 -7 11 -15 0
-8 5 -15 11 -15 7 0 9 -10 7 -25 -4 -17 -1 -25 8 -25 8 0 14 -7 14 -15 0 -8 5
-15 10 -15 6 0 10 4 10 9 0 5 9 11 20 14 13 3 18 10 14 21 -4 9 -1 16 6 16 7
0 10 7 6 15 -3 9 1 18 9 21 19 8 48 -15 41 -32 -3 -7 1 -17 8 -23 10 -9 15 -6
21 11 l8 23 4 -22 c5 -24 18 -30 28 -13 3 6 11 10 16 10 6 0 7 -5 4 -10 -3 -5
1 -10 10 -10 12 0 15 5 11 16 -3 9 -9 26 -12 38 -5 22 -3 23 33 17 31 -6 38
-11 37 -29 -1 -27 30 -38 68 -23 20 7 27 18 30 48 3 21 1 40 -5 42 -5 2 -3 7
4 11 10 7 10 27 -5 107 -13 67 -21 178 -26 356 -4 142 -11 262 -16 267 -12 12
-64 -35 -64 -57 0 -9 -6 -24 -13 -32 -7 -9 -21 -36 -31 -61 -10 -25 -27 -66
-38 -91 -15 -35 -22 -79 -27 -178 -3 -73 -2 -139 3 -148 8 -15 -5 -106 -25
-169 -8 -28 -15 -32 -55 -38 -26 -3 -51 -3 -58 1 -6 4 -20 6 -31 5 -27 -4 -59
67 -79 178 -9 47 -23 117 -30 155 -8 39 -17 111 -21 160 -3 50 -9 104 -12 120
-10 46 -11 648 -2 666 5 10 3 23 -5 34 -7 10 -11 27 -8 37 2 10 -1 18 -7 18
-6 0 -11 -6 -11 -14 0 -7 -7 -19 -15 -26 -11 -10 -18 -9 -30 4 -9 9 -24 16
-33 16 -12 0 -13 -3 -4 -12 17 -17 15 -39 -3 -32 -16 7 -20 -6 -6 -21 5 -6 12
-20 16 -32 4 -17 2 -23 -8 -23 -9 0 -18 -6 -21 -12 -3 -7 -4 -4 -1 7 3 13 -2
26 -14 34 -11 8 -16 21 -14 32 4 13 0 19 -11 19 -10 0 -14 -5 -10 -11 4 -7 1
-10 -7 -7 -8 3 -14 12 -14 21 0 8 -4 19 -8 23 -10 10 -37 -28 -29 -41 10 -14
9 -55 0 -55 -4 0 -8 4 -8 9 0 12 -39 21 -46 10 -9 -15 -37 -10 -31 5 7 17 -9
32 -43 41 -24 6 -25 4 -26 -45 -1 -58 -7 -68 -29 -50 -12 10 -15 10 -15 -4 0
-9 -4 -16 -10 -16 -5 0 -10 11 -10 25 0 16 -6 25 -15 25 -10 0 -15 10 -15 28
-1 24 -2 25 -14 10 -12 -17 -36 -25 -36 -13 0 3 8 17 17 32 14 21 15 25 3 21
-8 -2 -19 -13 -24 -24 -9 -20 -10 -20 -33 3 -27 28 -28 33 -8 33 10 0 15 10
15 29 0 41 36 53 61 20 16 -21 17 -22 16 -4 -2 19 5 20 260 20 l262 0 5 25 c3
14 10 54 16 90 12 70 68 269 81 285 4 6 15 33 24 60 10 28 25 59 36 70 10 11
25 37 33 57 15 35 53 71 106 99 87 45 261 48 354 6z m6366 17 c0 -2 -7 -4 -15
-4 -8 0 -15 4 -15 10 0 5 7 7 15 4 8 -4 15 -8 15 -10z m-3011 0 c25 -5 30 -11
29 -30 -2 -17 -8 -24 -23 -24 -12 0 -26 -5 -33 -12 -9 -9 -15 -9 -24 0 -9 9
-7 12 10 12 26 0 27 6 7 26 -30 30 -20 39 34 28z m1731 -10 c0 -12 -4 -14 -12
-7 -7 6 -20 13 -28 16 -9 3 -3 6 13 6 19 1 27 -4 27 -15z m-2640 -3 c0 -6 -5
-13 -12 -17 -6 -4 -8 -3 -4 4 3 6 -2 13 -11 15 -14 4 -13 5 5 6 12 0 22 -3 22
-8z m2780 5 c0 -11 -19 -15 -25 -6 -3 5 1 10 9 10 9 0 16 -2 16 -4z m1565 -6
c3 -5 1 -10 -4 -10 -6 0 -11 5 -11 10 0 6 2 10 4 10 3 0 8 -4 11 -10z m2115 0
c0 -5 -9 -14 -20 -20 -23 -12 -26 -6 -7 15 14 17 27 19 27 5z m-7122 -27 c11
-11 11 -16 -2 -29 -13 -12 -22 -13 -44 -6 l-27 10 30 13 c28 12 29 13 8 16
-13 3 -23 8 -23 13 0 11 42 -1 58 -17z m436 19 c2 -4 -4 -13 -15 -20 -16 -11
-19 -9 -19 8 0 19 24 28 34 12z m899 1 c-7 -2 -19 -2 -25 0 -7 3 -2 5 12 5 14
0 19 -2 13 -5z m1104 1 c-3 -3 -12 -4 -19 -1 -8 3 -5 6 6 6 11 1 17 -2 13 -5z
m709 -22 c22 -11 50 -29 62 -40 13 -12 27 -22 30 -24 12 -5 49 -62 56 -86 8
-25 -10 -119 -27 -140 -5 -7 -7 -15 -4 -18 3 -3 -29 -40 -71 -82 -42 -43 -76
-80 -75 -83 1 -4 -8 -7 -20 -7 -20 0 -109 -51 -146 -83 -7 -7 -34 -14 -60 -16
-43 -4 -49 -2 -85 36 -35 36 -37 41 -20 47 77 25 154 64 313 162 80 49 101 80
101 151 0 91 -58 136 -170 134 -78 -2 -263 -38 -268 -53 -2 -5 -9 -10 -14 -10
-6 0 -34 -17 -62 -39 -28 -21 -64 -46 -81 -55 -35 -21 -79 -74 -52 -63 11 4
14 2 10 -9 -3 -7 -9 -14 -14 -14 -11 0 -12 -27 -1 -33 4 -2 2 -3 -5 -1 -32 8
-14 -125 28 -209 13 -24 87 -106 175 -192 108 -107 160 -165 178 -202 14 -28
30 -54 36 -58 5 -3 10 -15 10 -26 0 -18 4 -20 33 -13 17 5 44 8 60 8 16 -1 27
4 27 12 0 21 30 44 56 44 14 0 36 7 50 17 15 10 43 16 70 15 l44 -2 0 65 c0
36 10 112 21 169 20 97 20 106 5 137 -30 60 -20 68 99 70 55 1 70 -2 88 -19
28 -29 33 -110 14 -214 -9 -46 -19 -134 -22 -197 -3 -63 -8 -117 -10 -121 -8
-12 -16 -250 -9 -250 10 0 33 33 34 48 0 7 29 72 64 145 66 136 129 232 168
254 34 18 102 16 127 -4 21 -17 22 -27 25 -203 1 -108 7 -196 14 -212 6 -15
12 -99 14 -192 2 -91 6 -166 10 -166 4 0 17 33 28 73 12 39 34 115 50 167 16
52 31 121 34 153 4 33 15 91 25 130 11 40 23 95 27 122 3 28 15 67 25 87 11
21 19 43 19 51 0 8 13 38 28 68 98 189 144 259 224 336 72 70 92 76 186 57 30
-6 28 -25 -8 -59 -28 -27 -41 -53 -20 -40 6 3 10 2 10 -3 0 -13 -27 -23 -43
-16 -26 10 -112 -109 -185 -253 -57 -113 -88 -189 -101 -253 -22 -102 -102
-414 -124 -480 -8 -25 -17 -65 -20 -90 -4 -25 -24 -98 -45 -164 -33 -101 -43
-121 -67 -133 -35 -19 -98 -12 -134 14 -51 37 -101 186 -101 301 0 30 -3 42
-9 34 -7 -11 -9 -10 -14 3 -4 9 -1 18 6 21 15 6 22 74 7 74 -5 0 -10 9 -10 21
0 11 4 18 9 15 11 -7 21 18 21 55 0 19 -5 29 -15 29 -8 0 -15 5 -15 10 0 6 8
10 18 8 15 -3 17 8 18 107 0 61 -2 128 -5 149 l-6 40 -16 -25 c-9 -13 -42 -80
-73 -149 -32 -69 -62 -132 -67 -140 -29 -48 -49 -101 -54 -142 -8 -61 -38 -74
-114 -48 -54 18 -65 28 -109 100 -27 45 -27 47 -26 218 0 120 -3 172 -10 169
-246 -97 -263 -107 -297 -181 -10 -23 -19 -55 -19 -73 0 -18 -14 -53 -32 -82
-18 -28 -52 -81 -76 -119 -24 -38 -58 -77 -75 -87 -18 -10 -50 -38 -72 -62
-33 -36 -55 -49 -125 -73 -47 -15 -101 -35 -120 -43 -62 -26 -186 -30 -261 -9
-86 24 -133 62 -171 135 -25 50 -29 67 -23 103 3 24 14 52 23 63 19 23 123 85
227 136 63 30 331 124 359 125 6 1 26 14 45 30 31 26 33 32 26 67 -3 21 -18
74 -33 118 -25 76 -31 85 -122 175 -52 52 -116 122 -142 155 -26 33 -54 68
-62 77 -8 9 -11 19 -8 23 4 4 -2 13 -12 21 -11 8 -15 14 -8 14 7 0 9 15 5 48
-4 38 0 62 22 116 15 38 38 85 52 105 13 19 22 43 20 53 -3 10 -1 21 4 24 5 3
9 -2 9 -10 0 -19 16 -21 27 -3 46 71 445 193 599 182 28 -2 69 -12 90 -23z
m-3266 8 c0 -5 -11 -10 -25 -10 -14 0 -25 5 -25 10 0 6 11 10 25 10 14 0 25
-4 25 -10z m1815 0 c3 -5 2 -10 -4 -10 -5 0 -13 5 -16 10 -3 6 -2 10 4 10 5 0
13 -4 16 -10z m442 4 c-3 -3 -12 -4 -19 -1 -8 3 -5 6 6 6 11 1 17 -2 13 -5z
m-965 -26 c19 -19 24 -33 9 -24 -5 4 -19 2 -32 -2 l-22 -9 24 -22 c20 -18 21
-23 9 -31 -20 -13 -50 -13 -50 0 0 6 10 10 21 10 18 0 19 2 9 15 -7 8 -23 15
-35 15 -18 0 -22 4 -18 19 3 13 -1 21 -14 24 -11 4 -6 6 12 5 46 0 51 1 35 12
-11 7 -9 9 10 7 13 -1 33 -10 42 -19z m2266 3 c3 -8 -1 -12 -9 -9 -7 2 -15 10
-17 17 -3 8 1 12 9 9 7 -2 15 -10 17 -17z m2128 -2 c8 -14 -10 -11 -32 6 -18
13 -18 14 4 8 12 -3 25 -9 28 -14z m-6031 1 c3 -5 1 -10 -4 -10 -6 0 -11 5
-11 10 0 6 2 10 4 10 3 0 8 -4 11 -10z m759 -17 c-10 -44 -24 -50 -22 -10 1
24 6 37 15 37 10 0 12 -8 7 -27z m576 17 c11 -7 7 -10 -18 -10 -20 0 -31 4
-27 10 8 13 26 13 45 0z m-1009 -52 c2 -20 0 -40 -4 -44 -4 -4 -7 -3 -8 2 0 5
-2 29 -5 54 -4 30 -3 42 4 35 6 -5 12 -27 13 -47z m769 30 c0 -12 -1 -19 -3
-17 -1 2 -9 12 -16 22 -12 14 -11 17 3 17 10 0 16 -8 16 -22z m30 3 c0 -4 -6
-15 -13 -26 -13 -16 -14 -15 -9 13 2 18 8 29 13 26 5 -3 9 -9 9 -13z m1780 15
c0 -3 -4 -8 -10 -11 -5 -3 -10 -1 -10 4 0 6 5 11 10 11 6 0 10 -2 10 -4z
m1660 -6 c0 -5 -5 -10 -11 -10 -5 0 -7 5 -4 10 3 6 8 10 11 10 2 0 4 -4 4 -10z
m-2817 -14 c18 -8 39 -17 47 -19 8 -3 0 -6 -17 -6 -21 -1 -33 -6 -33 -15 0
-10 -7 -12 -22 -8 -21 5 -21 6 -2 13 18 6 18 7 2 14 -10 4 -18 13 -18 21 0 17
4 17 43 0z m1122 4 c-3 -5 -10 -10 -16 -10 -5 0 -9 5 -9 10 0 6 7 10 16 10 8
0 12 -4 9 -10z m1735 0 c0 -5 -4 -10 -10 -10 -5 0 -10 5 -10 10 0 6 5 10 10
10 6 0 10 -4 10 -10z m-2115 -10 c3 -5 3 -15 -1 -21 -4 -8 -9 -7 -15 2 -7 11
-12 12 -29 1 -22 -13 -27 -3 -8 16 15 15 45 16 53 2z m2545 0 c0 -5 -4 -10 -9
-10 -6 0 -13 5 -16 10 -3 6 1 10 9 10 9 0 16 -4 16 -10z m-4570 -20 c0 -5 -5
-10 -11 -10 -5 0 -7 5 -4 10 3 6 8 10 11 10 2 0 4 -4 4 -10z m863 3 c8 -7 -39
-33 -60 -33 -19 0 -6 19 21 30 27 11 31 11 39 3z m729 -25 c-5 -5 -26 -4 -48
1 -32 7 -34 9 -12 10 15 1 30 6 33 11 5 8 11 7 21 -1 8 -7 11 -16 6 -21z
m-882 12 c0 -5 -4 -10 -10 -10 -5 0 -10 5 -10 10 0 6 5 10 10 10 6 0 10 -4 10
-10z m770 0 c0 -5 -7 -7 -15 -4 -8 4 -15 8 -15 10 0 2 7 4 15 4 8 0 15 -4 15
-10z m3945 0 c3 -5 1 -10 -4 -10 -6 0 -11 5 -11 10 0 6 2 10 4 10 3 0 8 -4 11
-10z m-4995 -21 c0 -6 -4 -7 -10 -4 -5 3 -10 11 -10 16 0 6 5 7 10 4 6 -3 10
-11 10 -16z m1290 0 c0 -5 -11 -9 -25 -9 -24 0 -32 10 -19 22 8 8 44 -3 44
-13z m2380 11 c0 -5 -5 -10 -11 -10 -5 0 -7 5 -4 10 3 6 8 10 11 10 2 0 4 -4
4 -10z m-4690 -9 c0 -6 -4 -13 -10 -16 -5 -3 -10 1 -10 9 0 9 5 16 10 16 6 0
10 -4 10 -9z m1675 -11 c3 -5 2 -10 -4 -10 -5 0 -13 5 -16 10 -3 6 -2 10 4 10
5 0 13 -4 16 -10z m730 0 c-3 -5 -10 -10 -16 -10 -5 0 -9 5 -9 10 0 6 7 10 16
10 8 0 12 -4 9 -10z m-3255 -10 c0 -5 -4 -10 -10 -10 -5 0 -10 5 -10 10 0 6 5
10 10 10 6 0 10 -4 10 -10z m2295 -11 c-4 -5 -13 -9 -22 -9 -13 0 -13 -3 -3
-15 14 -16 10 -18 -14 -9 -23 9 -20 28 7 40 24 11 41 8 32 -7z m485 11 c0 -5
-24 -10 -52 -9 -39 0 -48 3 -33 9 28 12 85 12 85 0z m680 6 c0 -11 -19 -15
-25 -6 -3 5 1 10 9 10 9 0 16 -2 16 -4z m-1302 -25 c3 -8 -1 -12 -9 -9 -7 2
-15 10 -17 17 -3 8 1 12 9 9 7 -2 15 -10 17 -17z m872 5 c0 -8 -13 -16 -30
-18 -34 -5 -37 -1 -12 18 22 17 42 18 42 0z m2485 4 c3 -5 1 -10 -4 -10 -6 0
-11 5 -11 10 0 6 2 10 4 10 3 0 8 -4 11 -10z m-3439 -37 c-11 -11 -17 4 -9 23
7 18 8 18 11 1 2 -10 1 -21 -2 -24z m6039 27 c8 -13 -5 -13 -25 0 -13 8 -13
10 2 10 9 0 20 -4 23 -10z m-5537 -6 c34 -9 29 -36 -5 -28 -37 9 -44 14 -38
25 7 11 12 11 43 3z m-858 -14 c0 -5 -5 -10 -11 -10 -5 0 -7 5 -4 10 3 6 8 10
11 10 2 0 4 -4 4 -10z m1020 0 c12 -8 9 -10 -13 -10 -16 0 -26 4 -22 10 8 12
16 12 35 0z m720 -11 c0 -5 -4 -9 -8 -9 -5 0 -9 7 -9 15 0 8 4 12 9 9 4 -3 8
-9 8 -15z m4820 11 c0 -5 -15 -9 -32 -9 l-33 1 30 8 c17 4 31 8 33 9 1 0 2 -3
2 -9z m270 -10 c0 -5 -5 -10 -11 -10 -5 0 -7 5 -4 10 3 6 8 10 11 10 2 0 4 -4
4 -10z m-5533 -45 c1 -36 -3 -45 -16 -45 -15 0 -51 32 -51 46 0 4 14 4 30 1
23 -5 30 -3 30 9 0 8 -4 12 -10 9 -5 -3 -10 1 -10 9 0 9 6 16 13 16 9 0 14
-15 14 -45z m2571 33 c16 -16 15 -28 -3 -28 -8 0 -15 -7 -15 -15 0 -8 -4 -15
-10 -15 -11 0 -12 15 -4 48 7 25 15 27 32 10z m1275 5 c-7 -2 -19 -2 -25 0 -7
3 -2 5 12 5 14 0 19 -2 13 -5z m-4272 -14 c20 -10 20 -11 3 -30 -21 -23 -38
-25 -30 -4 3 9 -1 18 -9 21 -8 4 -15 10 -15 15 0 12 27 11 51 -2z m649 1 c0
-5 -4 -10 -10 -10 -5 0 -10 5 -10 10 0 6 5 10 10 10 6 0 10 -4 10 -10z m-1505
-10 c3 -5 -1 -10 -9 -10 -9 0 -16 5 -16 10 0 6 4 10 9 10 6 0 13 -4 16 -10z
m349 -5 c-4 -8 -10 -15 -15 -15 -4 0 -6 7 -3 15 4 8 10 15 15 15 4 0 6 -7 3
-15z m1370 0 c7 -19 -3 -45 -18 -45 -6 0 -19 7 -30 15 -15 12 -16 16 -5 29 18
20 45 20 53 1z m846 5 c0 -5 -5 -10 -11 -10 -5 0 -7 5 -4 10 3 6 8 10 11 10 2
0 4 -4 4 -10z m-1570 -10 c0 -5 -10 -10 -22 -10 -19 0 -20 2 -8 10 19 13 30
13 30 0z m848 -15 c-2 -26 -28 -44 -28 -20 0 8 -6 15 -12 15 -10 0 17 20 39
29 2 1 2 -10 1 -24z m-1028 5 c0 -5 -2 -10 -4 -10 -3 0 -8 5 -11 10 -3 6 -1
10 4 10 6 0 11 -4 11 -10z m573 -15 c7 -16 -8 -29 -23 -20 -10 6 -2 35 10 35
4 0 10 -7 13 -15z m3699 3 c-9 -9 -15 -9 -24 0 -9 9 -7 12 12 12 19 0 21 -3
12 -12z m-3128 -7 c3 -5 -3 -11 -13 -14 -12 -3 -22 1 -25 9 -6 16 29 20 38 5z
m1181 -1 c4 -6 -9 -10 -32 -9 -38 1 -38 1 -8 9 17 4 31 8 32 9 1 0 5 -3 8 -9z
m2405 0 c0 -5 -6 -10 -14 -10 -8 0 -18 5 -21 10 -3 6 3 10 14 10 12 0 21 -4
21 -10z m-6860 -4 c0 -2 -9 -6 -20 -9 -11 -3 -18 -1 -14 4 5 9 34 13 34 5z
m417 -27 c2 -20 -2 -29 -10 -26 -14 4 -16 39 -2 49 6 4 10 8 10 8 0 0 1 -14 2
-31z m6173 21 c0 -5 -5 -10 -11 -10 -5 0 -7 5 -4 10 3 6 8 10 11 10 2 0 4 -4
4 -10z m-2605 -10 c3 -5 1 -10 -4 -10 -6 0 -11 5 -11 10 0 6 2 10 4 10 3 0 8
-4 11 -10z m-4525 -10 c0 -5 -4 -10 -10 -10 -5 0 -10 5 -10 10 0 6 5 10 10 10
6 0 10 -4 10 -10z m3505 -28 c-3 -3 -16 5 -28 17 l-22 23 28 -17 c15 -10 25
-20 22 -23z m825 28 c0 -5 -7 -10 -15 -10 -8 0 -15 5 -15 10 0 6 7 10 15 10 8
0 15 -4 15 -10z m90 0 c0 -5 -7 -10 -16 -10 -8 0 -12 5 -9 10 3 6 10 10 16 10
5 0 9 -4 9 -10z m-2590 -10 c0 -5 -5 -10 -11 -10 -5 0 -7 5 -4 10 3 6 8 10 11
10 2 0 4 -4 4 -10z m875 0 c4 -6 -7 -10 -27 -9 -31 1 -32 1 -8 9 14 4 26 8 27
9 1 1 5 -3 8 -9z m412 4 c-3 -3 -12 -4 -19 -1 -8 3 -5 6 6 6 11 1 17 -2 13 -5z
m581 -13 c3 -8 -1 -12 -9 -9 -7 2 -15 10 -17 17 -3 8 1 12 9 9 7 -2 15 -10 17
-17z m117 9 c3 -5 1 -10 -4 -10 -6 0 -11 5 -11 10 0 6 2 10 4 10 3 0 8 -4 11
-10z m2450 1 c7 -12 -12 -24 -25 -16 -11 7 -4 25 10 25 5 0 11 -4 15 -9z
m1121 -22 c0 -11 -7 -19 -17 -19 -11 0 -16 8 -15 23 1 29 32 25 32 -4z m-6741
11 c-3 -5 -11 -10 -16 -10 -6 0 -7 5 -4 10 3 6 11 10 16 10 6 0 7 -4 4 -10z
m1132 4 c-3 -3 -12 -4 -19 -1 -8 3 -5 6 6 6 11 1 17 -2 13 -5z m3928 -3 c10
-17 -12 -21 -25 -6 -10 12 -10 15 3 15 9 0 18 -4 22 -9z m-5236 -22 c-16 -10
-23 -4 -14 10 3 6 11 8 17 5 6 -4 5 -9 -3 -15z m7468 15 c-3 -3 -12 -4 -19 -1
-8 3 -5 6 6 6 11 1 17 -2 13 -5z m718 -4 c3 -5 1 -10 -4 -10 -6 0 -11 5 -11
10 0 6 2 10 4 10 3 0 8 -4 11 -10z m-6825 -28 c0 -15 -2 -15 -10 -2 -13 20
-13 33 0 25 6 -3 10 -14 10 -23z m1630 18 c0 -5 -5 -10 -11 -10 -5 0 -7 5 -4
10 3 6 8 10 11 10 2 0 4 -4 4 -10z m119 -7 c3 -2 0 -7 -5 -12 -11 -11 -54 4
-54 19 0 9 47 4 59 -7z m-3396 -7 c3 -8 0 -19 -7 -25 -10 -8 -12 -5 -10 12 4
33 8 37 17 13z m242 5 c7 -12 -12 -24 -25 -16 -11 7 -4 25 10 25 5 0 11 -4 15
-9z m99 -6 c-4 -8 -13 -15 -21 -15 -13 0 -13 3 -3 15 7 8 16 15 21 15 5 0 6
-7 3 -15z m356 -25 c0 -7 -7 -9 -16 -6 -9 3 -20 6 -25 6 -11 0 -7 22 5 32 11
7 36 -15 36 -32z m75 19 c-2 -12 0 -30 5 -40 7 -12 6 -20 -1 -25 -6 -3 -8 -16
-4 -28 14 -47 15 -65 4 -72 -7 -4 -17 0 -23 8 -6 8 -16 13 -22 11 -23 -8 -22
46 2 72 14 15 20 32 17 44 -6 24 2 51 16 51 5 0 8 -10 6 -21z m3375 17 c0 -11
-19 -15 -25 -6 -3 5 1 10 9 10 9 0 16 -2 16 -4z m2210 -12 c0 -2 -7 -4 -15 -4
-8 0 -15 4 -15 10 0 5 7 7 15 4 8 -4 15 -8 15 -10z m-6318 -20 c-3 -15 -8 -22
-14 -16 -9 9 -1 42 12 42 4 0 5 -12 2 -26z m3568 16 c0 -5 -2 -10 -4 -10 -3 0
-8 5 -11 10 -3 6 -1 10 4 10 6 0 11 -4 11 -10z m-2875 -10 c3 -5 1 -10 -4 -10
-6 0 -11 5 -11 10 0 6 2 10 4 10 3 0 8 -4 11 -10z m169 -6 c9 -25 7 -34 -8
-34 -19 0 -28 14 -20 34 8 20 20 20 28 0z m641 6 c3 -5 -1 -10 -10 -10 -9 0
-13 5 -10 10 3 6 8 10 10 10 2 0 7 -4 10 -10z m1403 -13 c2 -10 -3 -17 -12
-17 -18 0 -29 16 -21 31 9 14 29 6 33 -14z m4942 13 c0 -5 -7 -10 -15 -10 -8
0 -15 5 -15 10 0 6 7 10 15 10 8 0 15 -4 15 -10z m-6533 -25 c-4 -8 -12 -15
-19 -14 -10 0 -10 2 0 6 6 2 12 12 12 21 0 8 3 13 6 9 4 -3 4 -13 1 -22z
m3028 15 c4 -6 -7 -10 -27 -9 -31 1 -32 1 -8 9 14 4 26 8 27 9 1 1 5 -3 8 -9z
m715 -2 c0 -4 -7 -8 -15 -8 -8 0 -15 4 -15 8 0 5 7 9 15 9 8 0 15 -4 15 -9z
m420 3 c0 -18 -18 -21 -30 -6 -10 13 -9 15 9 15 11 0 21 -4 21 -9z m415 -1 c3
-5 1 -10 -4 -10 -6 0 -11 5 -11 10 0 6 2 10 4 10 3 0 8 -4 11 -10z m245 0 c0
-5 -4 -10 -10 -10 -5 0 -10 5 -10 10 0 6 5 10 10 10 6 0 10 -4 10 -10z m-6287
-17 c-7 -3 -13 -11 -13 -19 0 -9 -5 -12 -11 -9 -7 5 -4 14 7 26 9 11 20 16 23
13 3 -4 0 -9 -6 -11z m581 2 c-4 -10 0 -15 11 -15 12 0 6 -10 -21 -37 -34 -33
-38 -35 -45 -17 -11 28 -11 29 17 58 30 29 46 34 38 11z m652 -12 c-10 -10
-19 5 -10 18 6 11 8 11 12 0 2 -7 1 -15 -2 -18z m349 13 c8 -7 11 -16 8 -19
-5 -6 -33 17 -33 27 0 10 11 7 25 -8z m1912 8 c-3 -3 -12 -4 -19 -1 -8 3 -5 6
6 6 11 1 17 -2 13 -5z m1847 0 c9 -3 16 -10 16 -15 0 -11 -29 -7 -55 9 -20 11
-20 11 2 12 12 0 28 -3 37 -6z m1636 2 c0 -3 -4 -8 -10 -11 -5 -3 -10 -1 -10
4 0 6 5 11 10 11 6 0 10 -2 10 -4z m-4880 -27 c0 -5 -4 -9 -10 -9 -5 0 -10 7
-10 16 0 8 5 12 10 9 6 -3 10 -10 10 -16z m4095 1 c-14 -15 -21 -17 -31 -9
-19 16 -8 29 23 29 25 0 26 0 8 -20z m-6081 -4 c-10 -8 -21 -12 -24 -10 -5 6
21 24 34 24 6 0 1 -6 -10 -14z m1171 -6 c-7 -23 10 -28 19 -5 7 19 22 19 29 1
8 -19 -9 -87 -23 -96 -9 -5 -9 -9 -1 -14 6 -4 11 -2 11 5 0 10 3 10 12 1 8 -8
8 -15 -3 -28 -9 -12 -10 -15 -1 -10 6 4 12 2 12 -3 0 -6 -9 -11 -21 -11 -15 0
-19 5 -15 15 8 21 -11 19 -23 -2 -9 -15 -10 -16 -11 -2 0 9 3 19 7 23 10 10
11 46 1 46 -4 0 -8 5 -8 10 0 6 11 8 25 4 15 -4 25 -2 25 4 0 6 -10 12 -22 14
-36 5 -44 59 -10 67 2 1 0 -8 -3 -19z m142 13 c-4 -3 1 -15 10 -26 17 -19 17
-19 -7 -12 -14 4 -27 9 -29 11 -5 4 19 34 27 34 3 0 2 -3 -1 -7z m2913 -3 c0
-5 -4 -10 -10 -10 -5 0 -10 5 -10 10 0 6 5 10 10 10 6 0 10 -4 10 -10z m-2423
-20 c-3 -11 -1 -23 4 -26 16 -9 10 -20 -16 -32 -35 -16 -48 -15 -41 3 3 9 0
15 -9 15 -30 0 -16 37 18 48 47 15 50 14 44 -8z m1225 -4 c46 -20 62 -140 31
-237 -29 -89 -152 -186 -202 -159 -31 16 -157 40 -212 40 -27 0 -49 3 -49 8 1
23 30 125 38 135 6 7 15 31 21 54 15 56 52 98 115 130 87 46 191 57 258 29z
m1323 14 c-3 -5 -14 -10 -23 -10 -15 0 -15 2 -2 10 20 13 33 13 25 0z m418 3
c-7 -2 -19 -2 -25 0 -7 3 -2 5 12 5 14 0 19 -2 13 -5z m312 -3 c3 -5 -1 -10
-10 -10 -9 0 -13 5 -10 10 3 6 8 10 10 10 2 0 7 -4 10 -10z m532 -12 c-3 -8
-6 -5 -6 6 -1 11 2 17 5 13 3 -3 4 -12 1 -19z m2427 1 c-3 -5 -10 -7 -15 -3
-5 3 -7 10 -3 15 3 5 10 7 15 3 5 -3 7 -10 3 -15z m446 11 c0 -5 -7 -10 -16
-10 -8 0 -12 5 -9 10 3 6 10 10 16 10 5 0 9 -4 9 -10z m-7581 -16 c2 -2 -7 -4
-20 -5 -13 0 -18 -3 -11 -6 19 -7 14 -23 -7 -23 -24 0 -33 13 -25 34 4 11 13
14 33 10 14 -4 28 -8 30 -10z m741 -19 c0 -7 10 -20 23 -29 l22 -17 -25 7
c-21 6 -23 5 -13 -7 16 -19 -15 -40 -47 -32 -14 4 -18 8 -10 13 8 5 7 11 -4
22 -18 18 -9 33 11 17 10 -9 13 -8 13 5 0 9 -5 16 -10 16 -6 0 -5 8 2 19 9 15
15 17 25 9 7 -6 13 -16 13 -23z m3594 20 c10 -8 23 -12 27 -9 5 3 9 1 9 -5 0
-12 -79 -9 -99 3 -12 8 -11 11 5 17 28 11 37 10 58 -6z m1566 5 c0 -5 -11 -10
-24 -10 -14 0 -28 5 -31 10 -4 6 7 10 24 10 17 0 31 -4 31 -10z m105 -1 c10
-14 1 -21 -19 -13 -9 3 -13 10 -10 15 7 12 21 11 29 -2z m895 2 c0 -6 -4 -13
-10 -16 -5 -3 -10 1 -10 9 0 9 5 16 10 16 6 0 10 -4 10 -9z m-7296 -17 c3 -8
2 -12 -4 -9 -6 3 -10 10 -10 16 0 14 7 11 14 -7z m475 2 c10 -12 8 -13 -8 -9
-12 3 -18 9 -15 14 7 12 10 11 23 -5z m-651 -31 c3 -19 -2 -33 -14 -42 -10 -7
-14 -13 -10 -13 4 0 4 -5 0 -11 -4 -8 -9 -7 -15 2 -5 8 -3 17 4 21 9 6 9 10
-2 17 -9 6 -10 14 -5 22 5 8 9 17 10 22 1 4 2 10 3 13 4 17 26 -7 29 -31z
m362 24 c0 -5 -5 -9 -11 -9 -7 0 -17 -7 -24 -17 -11 -14 -13 -13 -17 9 -4 22
-1 25 24 26 15 0 28 -4 28 -9z m97 -11 c-3 -8 -6 -5 -6 6 -1 11 2 17 5 13 3
-3 4 -12 1 -19z m2689 9 c4 -4 0 -7 -9 -7 -9 0 -18 4 -21 9 -7 10 20 9 30 -2z
m2024 9 c0 -11 -19 -15 -25 -6 -3 5 1 10 9 10 9 0 16 -2 16 -4z m850 -6 c0 -5
-6 -10 -14 -10 -8 0 -18 5 -21 10 -3 6 3 10 14 10 12 0 21 -4 21 -10z m128 -6
c-9 -9 -21 -13 -27 -9 -16 10 -3 25 22 25 20 0 20 -1 5 -16z m-4918 -11 c0
-34 -17 -46 -18 -14 0 17 4 31 9 31 5 0 9 -8 9 -17z m3225 7 c3 -5 -1 -10 -9
-10 -9 0 -16 5 -16 10 0 6 4 10 9 10 6 0 13 -4 16 -10z m-4855 -10 c0 -5 -5
-10 -11 -10 -5 0 -7 5 -4 10 3 6 8 10 11 10 2 0 4 -4 4 -10z m6170 0 c0 -5
-19 -10 -42 -9 -33 0 -38 2 -23 9 28 12 65 12 65 0z m685 -1 c4 -6 5 -13 2
-16 -8 -7 -47 7 -47 18 0 13 37 11 45 -2z m-6795 -9 c0 -5 -2 -10 -4 -10 -3 0
-8 5 -11 10 -3 6 -1 10 4 10 6 0 11 -4 11 -10z m40 -22 c0 -5 -4 -8 -10 -8 -5
0 -10 10 -10 23 0 18 2 19 10 7 5 -8 10 -18 10 -22z m210 28 c0 -3 -4 -8 -10
-11 -5 -3 -10 -1 -10 4 0 6 5 11 10 11 6 0 10 -2 10 -4z m3120 -6 c0 -5 -8
-10 -17 -10 -15 0 -16 2 -3 10 19 12 20 12 20 0z m1878 -16 c2 -16 -3 -23 -24
-27 -37 -7 -54 1 -54 25 0 14 5 18 15 15 8 -4 17 -2 21 4 10 17 39 5 42 -17z
m1692 16 c0 -14 -36 -17 -54 -5 -15 11 -13 13 18 13 20 0 36 -4 36 -8z m710 1
c0 -5 -11 -8 -25 -8 -13 0 -22 3 -19 8 3 5 14 9 25 9 10 0 19 -4 19 -9z m264
-11 c27 -10 28 -12 21 -58 -5 -26 -9 -67 -10 -92 -2 -25 -9 -74 -17 -110 -20
-89 -13 -157 15 -166 12 -4 75 -6 140 -5 64 1 117 -2 117 -7 0 -5 17 -8 38 -6
20 2 37 3 37 4 0 0 64 2 143 4 128 2 142 1 142 -14 0 -12 -11 -19 -32 -23 -18
-3 -71 -13 -118 -22 -48 -8 -157 -16 -244 -18 -115 -3 -160 -7 -166 -16 -4 -8
-28 -13 -59 -13 -54 0 -56 -3 -54 -65 1 -7 -3 -13 -7 -13 -4 0 -8 -10 -8 -22
0 -30 -20 -152 -28 -172 -3 -9 -1 -16 6 -16 7 0 6 -6 -4 -16 -17 -16 -17 -17
-22 -74 -2 -35 -15 -104 -34 -190 -9 -42 -12 -75 -25 -270 -7 -99 12 -165 60
-208 19 -18 41 -32 48 -32 47 0 159 130 215 250 53 112 243 432 279 468 7 8
18 22 23 33 22 39 70 12 70 -39 0 -25 -21 -66 -52 -101 -22 -24 -47 -66 -136
-226 -9 -16 -20 -32 -23 -35 -3 -3 -8 -12 -12 -20 -4 -8 -25 -44 -47 -79 -32
-50 -38 -66 -28 -73 10 -7 10 -9 -2 -6 -9 3 -30 -20 -58 -64 -24 -37 -48 -68
-52 -68 -5 0 -12 -9 -15 -20 -3 -11 -13 -20 -20 -20 -8 0 -18 -6 -22 -13 -4
-7 -27 -19 -50 -27 -24 -7 -43 -17 -43 -22 0 -10 8 -10 50 2 36 11 73 0 95
-27 7 -9 15 -10 25 -3 10 6 11 10 3 10 -7 0 -13 4 -13 8 0 4 18 8 41 9 22 1
49 5 60 8 15 5 19 2 19 -17 0 -20 5 -23 34 -23 26 0 32 3 24 13 -8 9 -2 12 25
12 20 0 39 -4 42 -10 3 -5 18 -10 33 -9 l27 1 -25 8 c-22 8 -20 9 12 7 20 -1
40 2 44 5 4 4 15 3 25 -3 30 -15 89 -1 89 22 0 13 7 19 21 19 14 0 19 -5 16
-14 -10 -25 37 -36 163 -40 149 -5 162 -9 150 -42 -8 -20 -6 -24 8 -24 15 -1
14 -2 -3 -12 -14 -8 -156 -12 -492 -12 -262 -1 -473 -5 -473 -10 0 -5 -6 -4
-13 2 -8 7 -101 11 -257 12 -135 0 -337 3 -450 5 -715 15 -917 15 -930 0 -17
-20 -53 -19 -66 3 -10 15 -32 17 -230 17 l-219 0 0 -110 0 -110 70 3 c39 2
107 5 153 6 91 3 116 16 127 66 3 15 17 38 31 51 25 24 26 24 40 4 12 -16 14
-45 9 -150 -3 -71 -8 -158 -11 -193 -5 -61 -7 -63 -31 -60 -22 3 -29 12 -44
62 -23 72 -33 84 -85 107 -35 16 -57 18 -152 12 l-110 -6 -6 -36 c-3 -20 -9
-104 -13 -188 -5 -132 -4 -155 11 -177 l16 -26 164 0 163 0 47 31 c26 18 73
65 104 105 40 52 64 74 79 74 12 0 25 -4 28 -10 8 -13 -93 -313 -108 -322 -19
-12 -76 -9 -152 7 -65 14 -236 18 -581 16 -99 -1 -122 10 -109 49 5 15 15 20
40 20 43 0 77 15 94 41 6 11 19 100 27 197 18 201 14 615 -6 668 -12 34 -45
54 -88 54 -20 0 -30 8 -39 27 -7 15 -13 32 -13 38 0 16 546 11 728 -5 l142
-14 0 -91 0 -91 30 1 c17 0 30 3 30 7 0 14 31 8 36 -7 11 -28 76 -6 67 23 -7
18 24 15 35 -4 10 -19 36 -24 142 -29 41 -1 80 -4 85 -5 31 -7 42 1 37 25 l-4
25 30 -17 c16 -9 28 -23 25 -30 -7 -18 15 -16 34 3 9 8 21 13 28 10 8 -3 11 2
8 15 -5 17 0 19 45 19 44 0 50 -2 45 -19 -6 -23 14 -38 30 -22 6 6 39 11 74
11 55 0 62 2 56 18 -6 16 -5 16 14 0 11 -10 26 -18 34 -18 8 0 26 -6 41 -14
36 -19 61 -11 77 25 15 33 28 37 47 12 7 -10 18 -18 26 -18 7 0 13 -7 13 -15
0 -23 32 -24 38 -1 4 18 9 18 48 9 65 -16 123 -9 91 11 -7 4 4 7 24 8 42 1 54
10 34 24 -12 8 -12 10 4 7 11 -2 20 -11 22 -21 3 -23 3 -23 32 -31 16 -6 22
-3 22 8 0 9 5 16 11 16 6 0 -1 14 -16 31 -42 50 -73 121 -86 194 -13 78 0 260
30 403 21 96 33 182 26 182 -2 0 -19 -21 -37 -47 -17 -27 -50 -68 -73 -92 -22
-24 -39 -50 -39 -57 1 -8 -2 -12 -6 -9 -7 4 -79 -69 -176 -181 -50 -58 -160
-128 -254 -161 -55 -20 -170 -16 -222 7 -47 20 -110 82 -130 126 -6 13 -15 24
-19 24 -4 0 -16 26 -25 58 -21 67 -21 68 -23 110 -1 22 -6 32 -17 32 -8 0 -12
5 -9 10 4 6 11 8 16 5 5 -4 9 9 9 27 0 18 3 50 7 72 l6 38 -74 -77 c-41 -42
-78 -83 -82 -91 -24 -42 -83 -88 -175 -134 -100 -50 -107 -52 -190 -53 -66 -1
-95 3 -122 17 -39 20 -120 95 -120 110 0 5 -10 20 -22 33 -77 82 -75 348 2
508 11 23 20 44 20 47 0 27 71 149 117 202 54 63 153 146 173 146 6 0 10 6 10
14 0 10 -7 12 -22 9 -17 -4 -20 -3 -13 5 15 16 75 27 75 14 0 -5 -7 -12 -15
-16 -8 -3 -15 -10 -15 -16 0 -6 37 -10 98 -10 99 0 99 0 146 -37 40 -31 47
-41 43 -62 -15 -71 -136 -272 -215 -354 -32 -35 -95 -60 -156 -62 -71 -3 -66
10 -69 -175 -2 -119 1 -140 19 -180 11 -25 26 -57 32 -72 7 -17 27 -34 57 -47
l47 -21 41 22 c23 11 96 75 162 142 116 117 137 140 235 256 25 29 54 62 65
74 11 12 29 41 39 66 35 82 120 184 205 248 57 43 231 53 300 17 17 -8 31 -11
31 -6 0 5 40 18 90 30 96 24 153 23 282 -5 84 -18 80 -18 77 9 -2 12 2 32 9
44 8 14 9 24 2 28 -8 5 -8 80 0 80 4 0 12 46 17 95 5 50 2 59 -21 87 -25 30
-25 32 -9 43 22 13 185 6 227 -10z m53 14 c-3 -3 -12 -4 -19 -1 -8 3 -5 6 6 6
11 1 17 -2 13 -5z m-4687 -14 c0 -5 -4 -10 -9 -10 -6 0 -13 5 -16 10 -3 6 1
10 9 10 9 0 16 -4 16 -10z m3747 4 c-3 -3 -12 -4 -19 -1 -8 3 -5 6 6 6 11 1
17 -2 13 -5z m-6127 -8 c0 -3 -4 -8 -10 -11 -5 -3 -10 -1 -10 4 0 6 5 11 10
11 6 0 10 -2 10 -4z m560 -6 c0 -5 -4 -10 -10 -10 -5 0 -10 5 -10 10 0 6 5 10
10 10 6 0 10 -4 10 -10z m3615 0 c-3 -5 -12 -7 -20 -3 -21 7 -19 13 6 13 11 0
18 -4 14 -10z m42 4 c-3 -3 -12 -4 -19 -1 -8 3 -5 6 6 6 11 1 17 -2 13 -5z
m369 -3 c-3 -5 -15 -7 -26 -4 -28 7 -25 13 6 13 14 0 23 -4 20 -9z m884 -1 c3
0 -3 -5 -13 -11 -18 -10 -37 -5 -37 12 0 7 12 7 50 -1z m846 2 c-5 -8 -66 -4
-66 4 0 2 16 4 36 4 19 0 33 -4 30 -8z m1264 -2 c0 -5 -7 -10 -15 -10 -8 0
-15 5 -15 10 0 6 7 10 15 10 8 0 15 -4 15 -10z m-2010 -10 c0 -5 -2 -10 -4
-10 -3 0 -8 5 -11 10 -3 6 -1 10 4 10 6 0 11 -4 11 -10z m1600 1 c0 -10 -30
-24 -37 -17 -3 3 -2 9 2 15 8 13 35 15 35 2z m-4907 -14 c3 -7 -3 -19 -14 -25
-17 -11 -19 -9 -17 13 2 26 22 34 31 12z m221 -3 c8 -21 -2 -33 -13 -15 -5 7
-11 12 -15 12 -22 -3 -28 2 -11 9 29 12 32 12 39 -6z m1281 6 c3 -5 -3 -10
-14 -10 -12 0 -21 5 -21 10 0 6 6 10 14 10 8 0 18 -4 21 -10z m1437 -2 c-14
-7 -21 -17 -17 -26 5 -14 -20 -41 -40 -42 -6 0 -11 9 -12 20 -1 14 4 20 14 18
9 -2 18 3 20 10 3 7 -5 12 -21 12 -50 0 -25 16 27 18 45 1 49 0 29 -10z m78 8
c0 -3 -4 -8 -10 -11 -5 -3 -10 -1 -10 4 0 6 5 11 10 11 6 0 10 -2 10 -4z m610
-6 c0 -5 -9 -10 -20 -10 -11 0 -20 5 -20 10 0 6 9 10 20 10 11 0 20 -4 20 -10z
m854 4 c11 -4 13 -11 5 -28 -8 -16 -19 -22 -44 -22 l-33 0 29 21 c16 12 26 25
22 28 -8 9 1 9 21 1z m-7213 -27 c-10 -9 -11 -8 -5 6 3 10 9 15 12 12 3 -3 0
-11 -7 -18z m449 8 c-7 -9 -15 -13 -17 -11 -7 7 7 26 19 26 6 0 6 -6 -2 -15z
m2605 5 c-3 -5 -14 -10 -23 -9 -14 0 -13 2 3 9 27 11 27 11 20 0z m3445 0 c0
-12 -17 -12 -45 0 -17 7 -15 9 13 9 17 1 32 -3 32 -9z m95 0 c8 -13 -5 -13
-25 0 -13 8 -13 10 2 10 9 0 20 -4 23 -10z m-6365 -10 c0 -5 -5 -10 -11 -10
-5 0 -7 5 -4 10 3 6 8 10 11 10 2 0 4 -4 4 -10z m1120 -22 c0 -5 -7 -8 -15 -8
-8 0 -15 2 -15 4 0 2 -3 12 -6 21 -6 15 -4 15 15 4 11 -8 21 -17 21 -21z
m3315 23 c3 -5 1 -12 -5 -16 -18 -11 -10 -22 23 -30 46 -11 78 -12 83 -3 9 14
34 9 34 -7 0 -13 -9 -15 -47 -11 -27 3 -60 8 -75 12 -22 5 -28 3 -28 -10 0
-10 -8 -16 -21 -16 -16 0 -19 4 -13 18 4 9 7 29 7 45 0 19 5 27 18 27 10 0 20
-4 24 -9z m398 2 c-7 -2 -19 -2 -25 0 -7 3 -2 5 12 5 14 0 19 -2 13 -5z m1737
-3 c0 -5 -16 -10 -36 -10 -21 0 -33 4 -29 10 3 6 19 10 36 10 16 0 29 -4 29
-10z m-2000 -21 c0 -5 -16 -9 -35 -9 -36 0 -48 16 -17 22 23 5 52 -2 52 -13z
m1140 12 c0 -11 -40 -22 -53 -14 -5 3 -3 9 4 14 18 11 49 11 49 0z m1780 -1
c0 -5 -4 -10 -9 -10 -6 0 -13 5 -16 10 -3 6 1 10 9 10 9 0 16 -4 16 -10z m40
0 c0 -5 -4 -10 -10 -10 -5 0 -10 5 -10 10 0 6 5 10 10 10 6 0 10 -4 10 -10z
m-6715 -10 c3 -5 1 -10 -4 -10 -6 0 -11 5 -11 10 0 6 2 10 4 10 3 0 8 -4 11
-10z m2012 -2 c-2 -7 -12 -12 -21 -12 -9 1 -16 -2 -16 -8 0 -5 -4 -6 -10 -3
-24 15 -11 25 43 34 5 0 7 -5 4 -11z m1660 6 c-3 -3 -12 -4 -19 -1 -8 3 -5 6
6 6 11 1 17 -2 13 -5z m318 -4 c3 -5 -1 -10 -10 -10 -9 0 -13 5 -10 10 3 6 8
10 10 10 2 0 7 -4 10 -10z m469 1 c11 -4 15 -10 10 -13 -5 -4 -18 0 -29 8 -20
15 -12 17 19 5z m356 -1 c0 -5 -4 -10 -10 -10 -5 0 -10 5 -10 10 0 6 5 10 10
10 6 0 10 -4 10 -10z m500 0 c0 -5 -10 -10 -22 -10 -19 0 -20 2 -8 10 19 13
30 13 30 0z m-6870 -10 c0 -5 -4 -10 -9 -10 -6 0 -13 5 -16 10 -3 6 1 10 9 10
9 0 16 -4 16 -10z m3683 -5 c4 -8 2 -17 -3 -20 -6 -4 -10 -4 -10 -1 0 2 -3 11
-6 20 -3 9 -2 16 4 16 5 0 12 -7 15 -15z m423 -11 c-11 -7 -22 -11 -25 -8 -3
3 3 12 13 20 11 7 22 11 25 8 3 -3 -3 -12 -13 -20z m-3604 -6 c-7 -7 -12 -8
-12 -2 0 6 3 14 7 17 3 4 9 5 12 2 2 -3 -1 -11 -7 -17z m990 0 c-7 -7 -12 -8
-12 -2 0 6 3 14 7 17 3 4 9 5 12 2 2 -3 -1 -11 -7 -17z m338 -14 c0 -19 -19
-17 -65 6 -25 13 -32 20 -20 20 11 0 29 -7 39 -15 29 -22 38 -18 25 8 -11 20
-11 21 4 8 10 -7 17 -20 17 -27z m880 32 c0 -3 -4 -8 -10 -11 -5 -3 -10 -1
-10 4 0 6 5 11 10 11 6 0 10 -2 10 -4z m3540 -12 c0 -8 -5 -12 -10 -9 -6 4 -8
11 -5 16 9 14 15 11 15 -7z m753 9 c-7 -2 -19 -2 -25 0 -7 3 -2 5 12 5 14 0
19 -2 13 -5z m284 1 c-3 -3 -12 -4 -19 -1 -8 3 -5 6 6 6 11 1 17 -2 13 -5z
m-6650 -19 c0 -8 -4 -12 -9 -9 -4 3 -8 9 -8 15 0 5 4 9 8 9 5 0 9 -7 9 -15z
m703 6 c0 -5 -7 -12 -16 -15 -14 -5 -15 -4 -4 9 14 17 20 19 20 6z m4075 -1
c16 -7 11 -9 -20 -9 -29 -1 -36 2 -25 9 17 11 19 11 45 0z m-1862 -32 c-28 -8
-43 -3 -43 13 0 6 9 8 19 4 11 -3 23 -1 26 6 6 8 10 7 16 -2 6 -10 1 -16 -18
-21z m1917 22 c0 -5 -4 -10 -10 -10 -5 0 -10 5 -10 10 0 6 5 10 10 10 6 0 10
-4 10 -10z m227 4 c-3 -3 -12 -4 -19 -1 -8 3 -5 6 6 6 11 1 17 -2 13 -5z
m1679 -22 c-9 -9 -37 8 -31 18 5 8 11 7 21 -1 8 -6 12 -14 10 -17z m-6952 1
c4 -9 3 -20 -1 -24 -13 -13 -37 7 -30 25 8 21 23 20 31 -1z m976 -4 c0 -6 -4
-7 -10 -4 -5 3 -10 11 -10 16 0 6 5 7 10 4 6 -3 10 -11 10 -16z m4130 11 c13
-8 13 -10 -2 -10 -9 0 -20 5 -23 10 -8 13 5 13 25 0z m-5016 -24 c-3 -9 -10
-16 -15 -16 -14 0 -11 28 4 33 16 6 19 3 11 -17z m354 2 c2 -12 -4 -16 -22
-14 -14 0 -26 2 -26 3 0 32 42 42 48 11z m2917 12 c3 -5 -1 -10 -9 -10 -9 0
-16 5 -16 10 0 6 4 10 9 10 6 0 13 -4 16 -10z m315 0 c0 -5 8 -7 18 -4 14 5
14 4 3 -4 -10 -7 -21 -7 -33 -1 -22 12 -23 19 -3 19 8 0 15 -4 15 -10z m2430
0 c0 -5 -6 -10 -14 -10 -8 0 -18 5 -21 10 -3 6 3 10 14 10 12 0 21 -4 21 -10z
m-5886 -15 c-4 -8 -1 -15 5 -15 6 0 8 -7 4 -17 -5 -12 -2 -15 10 -10 27 10 20
-7 -8 -20 -20 -9 -28 -8 -40 4 -19 18 -19 33 -1 33 7 0 16 9 19 20 3 11 8 20
11 20 3 0 3 -7 0 -15z m1076 -6 c0 -5 -4 -9 -10 -9 -5 0 -10 7 -10 16 0 8 5
12 10 9 6 -3 10 -10 10 -16z m1965 1 c10 -11 15 -20 12 -20 -4 0 -16 9 -27 20
-11 11 -16 20 -12 20 5 0 17 -9 27 -20z m4368 7 c-2 -4 -5 -7 -8 -7 -3 0 -9 0
-15 0 -5 0 -10 4 -10 9 0 5 8 8 18 7 9 -2 16 -6 15 -9z m-4803 -7 c0 -5 -2
-10 -4 -10 -3 0 -8 5 -11 10 -3 6 -1 10 4 10 6 0 11 -4 11 -10z m2400 0 c0 -5
-4 -10 -9 -10 -6 0 -13 5 -16 10 -3 6 1 10 9 10 9 0 16 -4 16 -10z m-4356 -11
c13 11 16 11 16 -2 0 -9 -12 -16 -29 -19 -24 -3 -27 -1 -23 15 3 14 7 15 13 6
6 -10 11 -10 23 0z m2066 1 c0 -5 -4 -10 -10 -10 -5 0 -10 5 -10 10 0 6 5 10
10 10 6 0 10 -4 10 -10z m1017 4 c-3 -3 -12 -4 -19 -1 -8 3 -5 6 6 6 11 1 17
-2 13 -5z m183 -4 c0 -5 -15 -10 -32 -10 -25 0 -29 3 -18 10 20 13 50 13 50 0z
m110 2 c0 -4 -12 -9 -27 -10 -22 -1 -24 0 -13 8 18 12 40 13 40 2z m80 -2 c0
-5 -8 -10 -17 -10 -15 0 -16 2 -3 10 19 12 20 12 20 0z m663 -18 c-27 -4 -30
-17 -5 -27 14 -6 12 -9 -12 -16 -16 -4 -33 -6 -38 -3 -13 9 -9 24 7 24 21 0
19 19 -2 27 -15 6 -14 8 7 13 14 4 34 2 45 -4 19 -10 19 -11 -2 -14z m277 19
c0 -11 -31 -24 -38 -16 -3 3 0 5 7 5 7 0 9 5 6 10 -3 6 1 10 9 10 9 0 16 -4
16 -9z m1410 -1 c0 -5 -4 -10 -10 -10 -5 0 -10 5 -10 10 0 6 5 10 10 10 6 0
10 -4 10 -10z m-2696 -15 c4 -10 -1 -15 -15 -15 -17 0 -18 2 -7 15 16 18 15
18 22 0z m2113 9 c-3 -3 -12 -4 -19 -1 -8 3 -5 6 6 6 11 1 17 -2 13 -5z
m-5607 -9 c0 -2 -10 -9 -22 -15 -22 -11 -22 -10 -4 4 21 17 26 19 26 11z
m2640 -17 c0 -13 -23 -5 -28 10 -2 7 2 10 12 6 9 -3 16 -11 16 -16z m1935 12
c3 -5 2 -10 -4 -10 -5 0 -13 5 -16 10 -3 6 -2 10 4 10 5 0 13 -4 16 -10z
m-4109 -13 c17 6 19 -13 3 -23 -6 -3 -15 0 -20 7 -8 12 -11 12 -19 -1 -11 -17
-13 -10 -4 15 4 11 10 13 17 6 5 -5 16 -7 23 -4z m3244 3 c0 -5 -5 -10 -11
-10 -5 0 -7 5 -4 10 3 6 8 10 11 10 2 0 4 -4 4 -10z m2830 0 c0 -5 -4 -10 -10
-10 -5 0 -10 5 -10 10 0 6 5 10 10 10 6 0 10 -4 10 -10z m-7274 -25 c-9 -9
-16 -13 -16 -8 0 12 22 34 28 28 2 -2 -3 -11 -12 -20z m1648 8 c7 -17 -13 -28
-27 -14 -6 6 -19 11 -29 11 -10 0 -18 4 -18 9 0 14 69 8 74 -6z m2701 7 c-3
-5 -13 -10 -21 -10 -8 0 -14 5 -14 10 0 6 9 10 21 10 11 0 17 -4 14 -10z m750
0 c3 -5 -3 -10 -14 -10 -11 0 -23 5 -26 10 -3 6 3 10 14 10 11 0 23 -4 26 -10z
m820 -1 c10 -14 1 -21 -19 -13 -9 3 -13 10 -10 15 7 12 21 11 29 -2z m895 1
c-8 -5 -31 -9 -50 -9 -29 0 -31 2 -15 9 11 5 34 9 50 9 23 1 26 -2 15 -9z
m1370 6 c0 -3 -4 -8 -10 -11 -5 -3 -10 -1 -10 4 0 6 5 11 10 11 6 0 10 -2 10
-4z m-1820 -22 c0 -6 -10 -14 -22 -18 -26 -6 -50 11 -31 22 19 12 53 9 53 -4z
m560 7 c0 -16 -28 -20 -40 -5 -10 12 -8 14 14 14 14 0 26 -4 26 -9z m238 -11
c-13 -21 -38 -27 -38 -10 0 6 7 10 15 10 8 0 15 5 15 10 0 6 5 10 10 10 6 0 5
-8 -2 -20z m-7488 -10 c0 -5 -2 -10 -4 -10 -3 0 -8 5 -11 10 -3 6 -1 10 4 10
6 0 11 -4 11 -10z m170 -4 c0 -3 -4 -8 -10 -11 -5 -3 -10 -1 -10 4 0 6 5 11
10 11 6 0 10 -2 10 -4z m425 -6 c3 -5 2 -10 -4 -10 -5 0 -13 5 -16 10 -3 6 -2
10 4 10 5 0 13 -4 16 -10z m65 0 c0 -5 -5 -10 -11 -10 -5 0 -7 5 -4 10 3 6 8
10 11 10 2 0 4 -4 4 -10z m6360 0 c0 -5 -2 -10 -4 -10 -3 0 -8 5 -11 10 -3 6
-1 10 4 10 6 0 11 -4 11 -10z m85 0 c4 -6 -5 -10 -19 -10 -14 0 -26 5 -26 10
0 6 9 10 19 10 11 0 23 -4 26 -10z m530 0 c3 -5 1 -10 -4 -10 -6 0 -11 5 -11
10 0 6 2 10 4 10 3 0 8 -4 11 -10z m-7731 -24 c-3 -9 -10 -16 -15 -16 -6 0 -5
9 1 21 13 24 24 20 14 -5z m443 2 c-3 -8 -6 -5 -6 6 -1 11 2 17 5 13 3 -3 4
-12 1 -19z m7330 16 c-3 -3 -12 -4 -19 -1 -8 3 -5 6 6 6 11 1 17 -2 13 -5z
m686 -1 c-7 -2 -13 -12 -13 -20 0 -9 -3 -14 -6 -10 -10 10 4 37 18 36 10 0 10
-2 1 -6z m-7410 -18 c4 -8 2 -17 -3 -20 -6 -4 -10 3 -10 14 0 25 6 27 13 6z
m7337 5 c0 -5 -4 -10 -9 -10 -6 0 -13 5 -16 10 -3 6 1 10 9 10 9 0 16 -4 16
-10z m-8130 -10 c0 -5 -2 -10 -4 -10 -2 0 -12 -3 -22 -7 -16 -6 -17 -5 -4 10
17 19 30 22 30 7z m650 -20 c0 -5 -5 -10 -11 -10 -5 0 -7 5 -4 10 3 6 8 10 11
10 2 0 4 -4 4 -10z m2775 -3 c3 -7 -4 -30 -15 -52 -11 -21 -20 -47 -20 -56 0
-24 -48 -134 -82 -188 -15 -25 -28 -50 -28 -56 0 -21 -22 -35 -37 -24 -19 16
-16 30 5 22 14 -6 15 -4 4 9 -11 13 -5 33 38 122 27 59 50 109 50 112 0 8 49
110 57 117 10 11 23 8 28 -6z m-2240 -7 c3 -5 1 -10 -4 -10 -6 0 -11 5 -11 10
0 6 2 10 4 10 3 0 8 -4 11 -10z m6990 -20 c3 -5 2 -10 -4 -10 -5 0 -13 5 -16
10 -3 6 -2 10 4 10 5 0 13 -4 16 -10z m-6685 -10 c0 -5 -4 -10 -10 -10 -5 0
-10 5 -10 10 0 6 5 10 10 10 6 0 10 -4 10 -10z m-980 -10 c0 -5 -2 -10 -4 -10
-3 0 -8 5 -11 10 -3 6 -1 10 4 10 6 0 11 -4 11 -10z m7726 1 c-4 -5 -1 -12 4
-14 6 -3 5 -4 -2 -3 -15 3 -23 26 -8 26 6 0 9 -4 6 -9z m-7590 -28 c-10 -10
-19 5 -10 18 6 11 8 11 12 0 2 -7 1 -15 -2 -18z m6591 11 c-3 -3 -12 -4 -19
-1 -8 3 -5 6 6 6 11 1 17 -2 13 -5z m-8797 -14 c0 -5 -4 -10 -10 -10 -5 0 -10
5 -10 10 0 6 5 10 10 10 6 0 10 -4 10 -10z m3510 0 c0 -5 -4 -10 -10 -10 -5 0
-10 5 -10 10 0 6 5 10 10 10 6 0 10 -4 10 -10z m6220 -10 c0 -5 -5 -10 -11
-10 -5 0 -7 5 -4 10 3 6 8 10 11 10 2 0 4 -4 4 -10z m-9480 -14 c0 -7 -7 -19
-15 -26 -13 -11 -15 -8 -15 14 0 16 5 26 15 26 8 0 15 -6 15 -14z m9810 -136
c0 -5 -5 -10 -11 -10 -5 0 -7 5 -4 10 3 6 8 10 11 10 2 0 4 -4 4 -10z m-323
-16 c-3 -3 -12 -4 -19 -1 -8 3 -5 6 6 6 11 1 17 -2 13 -5z m-8322 -24 c3 -6
-1 -7 -9 -4 -18 7 -21 14 -7 14 6 0 13 -4 16 -10z m1986 -13 c-10 -9 -11 -8
-5 6 3 10 9 15 12 12 3 -3 0 -11 -7 -18z m29 -17 c0 -5 -2 -10 -4 -10 -3 0 -8
5 -11 10 -3 6 -1 10 4 10 6 0 11 -4 11 -10z m6625 -160 c-3 -5 -10 -10 -16
-10 -5 0 -9 5 -9 10 0 6 7 10 16 10 8 0 12 -4 9 -10z m-7138 -32 c-3 -8 -6 -5
-6 6 -1 11 2 17 5 13 3 -3 4 -12 1 -19z m497 -14 c3 -8 2 -12 -4 -9 -6 3 -10
10 -10 16 0 14 7 11 14 -7z m2686 -9 c10 -13 9 -15 -9 -15 -12 0 -21 6 -21 15
0 8 4 15 9 15 5 0 14 -7 21 -15z m3800 -76 c0 -5 -7 -9 -15 -9 -15 0 -20 12
-9 23 8 8 24 -1 24 -14z m-2195 1 c3 -5 -1 -10 -10 -10 -9 0 -13 5 -10 10 3 6
8 10 10 10 2 0 7 -4 10 -10z m2465 0 c0 -5 -2 -10 -4 -10 -3 0 -8 5 -11 10 -3
6 -1 10 4 10 6 0 11 -4 11 -10z m-2216 -16 c3 -8 2 -12 -4 -9 -6 3 -10 10 -10
16 0 14 7 11 14 -7z m150 0 c4 -10 1 -14 -6 -12 -15 5 -23 28 -10 28 5 0 13
-7 16 -16z m1646 1 c-7 -8 -14 -15 -15 -15 -2 0 -5 7 -9 15 -4 10 1 15 16 15
17 0 18 -2 8 -15z m-254 -7 c4 -6 3 -8 -4 -4 -5 3 -12 0 -15 -6 -2 -7 -8 -9
-13 -5 -5 4 -2 12 6 17 19 12 17 12 26 -2z m-6273 -13 c-3 -9 -8 -14 -10 -11
-3 3 -2 9 2 15 9 16 15 13 8 -4z m-3043 -16 c0 -5 -4 -9 -10 -9 -5 0 -10 7
-10 16 0 8 5 12 10 9 6 -3 10 -10 10 -16z m7871 1 c10 0 19 -4 19 -10 0 -13
-6 -13 -31 0 -10 6 -19 16 -18 23 0 9 2 9 6 0 2 -7 13 -13 24 -13z m1149 -36
c0 -8 -4 -12 -10 -9 -5 3 -10 10 -10 16 0 5 5 9 10 9 6 0 10 -7 10 -16z
m-1396 -15 c-8 -14 -21 -11 -21 5 0 8 6 12 14 9 7 -3 10 -9 7 -14z m2086 11
c0 -5 -4 -10 -10 -10 -5 0 -10 5 -10 10 0 6 5 10 10 10 6 0 10 -4 10 -10z
m-160 -41 c0 -5 -4 -9 -10 -9 -5 0 -10 7 -10 16 0 8 5 12 10 9 6 -3 10 -10 10
-16z m-6290 -9 c0 -5 -2 -10 -4 -10 -3 0 -8 5 -11 10 -3 6 -1 10 4 10 6 0 11
-4 11 -10z m4420 0 c0 -5 -2 -10 -4 -10 -3 0 -8 5 -11 10 -3 6 -1 10 4 10 6 0
11 -4 11 -10z m-61 -31 c-13 -26 -20 -21 -12 9 3 12 9 19 14 16 5 -3 4 -14 -2
-25z m-4429 -4 c0 -12 -19 -12 -23 0 -4 9 -1 12 9 8 7 -3 14 -7 14 -8z m60 -9
c0 -3 -4 -8 -10 -11 -5 -3 -10 -1 -10 4 0 6 5 11 10 11 6 0 10 -2 10 -4z
m6730 -27 c0 -5 -11 -9 -25 -9 -28 0 -34 16 -7 23 20 4 32 -1 32 -14z m-350
-23 c0 -6 -4 -5 -9 3 -5 7 -14 11 -20 7 -7 -5 -9 -1 -5 9 5 12 9 13 20 4 8 -6
14 -17 14 -23z m-3470 14 c0 -5 -4 -10 -10 -10 -5 0 -10 5 -10 10 0 6 5 10 10
10 6 0 10 -4 10 -10z m1460 0 c0 -5 -4 -10 -10 -10 -5 0 -10 5 -10 10 0 6 5
10 10 10 6 0 10 -4 10 -10z m-4393 -32 c-3 -8 -6 -5 -6 6 -1 11 2 17 5 13 3
-3 4 -12 1 -19z m3263 -8 c0 -5 -2 -10 -4 -10 -3 0 -8 5 -11 10 -3 6 -1 10 4
10 6 0 11 -4 11 -10z m2925 0 c3 -5 1 -10 -4 -10 -6 0 -11 5 -11 10 0 6 2 10
4 10 3 0 8 -4 11 -10z m-7185 -10 c0 -5 -4 -10 -10 -10 -5 0 -10 5 -10 10 0 6
5 10 10 10 6 0 10 -4 10 -10z m7064 -66 c5 -14 4 -15 -9 -4 -17 14 -19 20 -6
20 5 0 12 -7 15 -16z m-6448 -190 c56 -6 89 -30 78 -58 -6 -16 -19 -21 -77
-30 -47 -8 -65 -16 -72 -34 -4 -9 -9 -101 -12 -203 -6 -175 -5 -186 13 -195
20 -9 473 -13 479 -4 2 3 7 68 10 145 5 99 4 153 -5 185 -16 59 -67 108 -117
112 -31 2 -39 8 -47 31 -17 47 -1 52 167 52 247 0 345 -6 357 -21 7 -7 10 -23
8 -36 -2 -18 -13 -25 -57 -35 -76 -16 -83 -27 -86 -125 -2 -85 -6 -655 -5
-785 l0 -71 49 -17 c85 -28 127 -75 81 -90 -21 -7 -205 -8 -390 -3 l-115 3 0
34 c0 34 1 35 63 49 95 21 96 23 89 253 -3 105 -8 194 -12 197 -4 4 -113 7
-243 7 l-237 0 -9 -93 c-9 -101 11 -300 34 -327 6 -8 36 -21 66 -30 59 -17 81
-42 64 -74 -9 -18 -19 -19 -122 -15 -62 2 -129 7 -149 9 -20 3 -74 0 -120 -6
-114 -14 -129 -9 -129 41 0 38 1 40 32 40 44 0 114 36 123 63 4 12 10 164 12
337 2 173 4 324 4 335 1 56 -15 204 -26 230 -10 27 -19 32 -81 45 -63 14 -69
18 -72 42 -2 18 4 31 19 42 20 13 49 15 204 10 99 -2 203 -7 231 -10z m6039
-4 c3 -5 1 -10 -4 -10 -6 0 -11 5 -11 10 0 6 2 10 4 10 3 0 8 -4 11 -10z
m-4300 -74 c101 -32 188 -84 265 -160 33 -32 60 -53 60 -47 0 9 9 11 30 6 21
-5 30 -3 31 7 0 7 4 4 9 -8 7 -19 13 -20 54 -14 53 8 67 17 46 30 -13 8 -13
10 1 10 9 0 19 -10 22 -21 4 -15 11 -20 22 -15 9 3 34 6 56 6 28 0 39 4 39 15
0 8 5 15 10 15 6 0 10 -6 10 -14 0 -20 19 -31 31 -19 14 14 -3 104 -21 114 -8
5 -34 13 -57 19 -42 10 -43 12 -43 50 0 47 -15 45 194 28 l149 -12 14 -36 c53
-130 93 -189 112 -164 3 5 15 16 25 24 17 14 18 13 13 -5 -5 -15 0 -23 19 -32
20 -9 26 -9 30 2 3 7 14 11 25 8 10 -3 19 0 19 6 0 8 8 8 28 -1 23 -11 59 -14
120 -9 6 1 12 10 12 21 0 11 7 20 15 20 9 0 12 -6 9 -15 -4 -9 0 -15 10 -15 9
0 16 -4 16 -9 0 -4 11 -6 25 -3 14 2 32 -1 40 -8 12 -10 15 -9 15 4 0 20 20
21 46 2 15 -11 16 -17 7 -27 -8 -8 -67 -11 -210 -10 -214 2 -255 5 -272 15 -6
4 -11 5 -11 1 0 -5 69 -163 137 -315 14 -30 31 -68 38 -85 67 -150 76 -168 85
-159 5 5 23 47 40 94 27 73 97 221 154 325 9 17 36 73 61 125 82 175 118 233
151 242 16 5 84 4 152 -2 68 -5 132 -10 143 -10 12 0 19 -7 19 -19 0 -24 -17
-37 -61 -45 -49 -9 -77 -42 -86 -102 -5 -41 -4 -47 8 -38 26 21 69 26 85 9 17
-17 44 -20 44 -5 0 6 -4 10 -10 10 -5 0 -10 5 -10 11 0 6 7 9 15 6 8 -4 17 -1
21 5 4 7 9 7 14 -1 3 -7 24 -14 46 -17 21 -3 55 -9 74 -14 33 -9 32 -9 -12 -5
-28 3 -48 0 -48 -5 0 -6 23 -10 50 -10 43 0 50 3 50 20 0 18 5 20 47 16 27 -3
54 0 61 7 10 8 16 7 22 -2 4 -8 13 -10 19 -7 6 4 11 2 11 -3 0 -6 9 -20 21
-32 l21 -21 -269 3 -268 4 -7 -40 c-12 -71 -11 -496 1 -600 16 -130 17 -133
51 -139 17 -3 44 -9 61 -12 26 -5 30 -10 27 -32 -3 -25 -7 -27 -73 -35 -63 -7
-391 -1 -405 8 -3 2 -4 22 -2 44 l4 41 58 0 c33 0 61 3 63 8 3 4 8 120 11 257
3 138 9 289 12 338 4 50 2 87 -3 87 -5 0 -28 -37 -50 -82 -187 -380 -237 -485
-272 -563 -43 -97 -70 -135 -96 -135 -16 0 -25 18 -110 205 -15 33 -58 123
-95 200 -61 125 -120 259 -168 383 -16 42 -27 53 -31 30 -6 -43 -6 -479 0
-508 4 -19 9 -60 10 -90 4 -91 18 -129 48 -135 75 -15 101 -36 88 -69 -6 -16
-21 -17 -169 -10 -90 5 -176 8 -193 7 -33 -1 -45 11 -45 44 0 28 27 43 79 43
29 0 48 7 62 21 22 22 22 24 16 363 -3 187 -9 351 -12 362 -6 20 -12 22 -63
18 -32 -2 -112 -4 -179 -5 -68 -1 -123 -5 -123 -10 0 -5 4 -9 9 -9 5 0 11 -10
14 -22 3 -13 13 -48 21 -78 10 -34 17 -95 17 -162 1 -130 -24 -231 -81 -327
-50 -86 -155 -190 -228 -227 -56 -28 -60 -29 -222 -29 l-165 0 -79 37 c-113
55 -198 142 -264 273 -45 90 -56 126 -67 213 -13 101 48 309 116 392 52 63
143 128 264 187 108 53 111 54 180 49 39 -3 106 -16 150 -30z m-3385 -21 c0
-5 -5 -3 -10 5 -5 8 -10 20 -10 25 0 6 5 3 10 -5 5 -8 10 -19 10 -25z m260
-25 c0 -5 -4 -10 -10 -10 -5 0 -10 5 -10 10 0 6 5 10 10 10 6 0 10 -4 10 -10z
m-686 -55 c-4 -8 -10 -12 -15 -9 -14 8 -10 24 6 24 9 0 12 -6 9 -15z m-104
-10 c0 -8 -4 -15 -10 -15 -5 0 -10 7 -10 15 0 8 5 15 10 15 6 0 10 -7 10 -15z
m-500 -11 c0 -8 -5 -12 -10 -9 -6 4 -8 11 -5 16 9 14 15 11 15 -7z m-134 -33
c-8 -7 -19 -10 -25 -7 -19 12 -12 24 14 22 20 -1 22 -3 11 -15z m67 -1 c-3
-11 -7 -20 -9 -20 -2 0 -4 9 -4 20 0 11 4 20 9 20 5 0 7 -9 4 -20z m8497 10
c0 -5 -4 -10 -10 -10 -5 0 -10 5 -10 10 0 6 5 10 10 10 6 0 10 -4 10 -10z
m-1970 -30 c0 -5 -5 -10 -11 -10 -5 0 -7 5 -4 10 3 6 8 10 11 10 2 0 4 -4 4
-10z m1980 -10 c0 -5 -6 -10 -14 -10 -8 0 -18 5 -21 10 -3 6 3 10 14 10 12 0
21 -4 21 -10z m270 0 c0 -5 -2 -10 -4 -10 -3 0 -8 5 -11 10 -3 6 -1 10 4 10 6
0 11 -4 11 -10z m-410 -10 c0 -5 -4 -10 -9 -10 -6 0 -13 5 -16 10 -3 6 1 10 9
10 9 0 16 -4 16 -10z m-425 -10 c-3 -5 -12 -10 -18 -10 -7 0 -6 4 3 10 19 12
23 12 15 0z m-4192 -33 c21 -3 21 -4 3 -12 -11 -5 -26 -4 -37 4 -15 8 -19 8
-19 -1 0 -6 -3 -8 -7 -5 -3 4 2 15 13 26 14 13 20 14 22 5 2 -7 13 -15 25 -17z
m-1909 9 c11 -1 22 -9 24 -18 4 -19 -22 -23 -65 -12 -19 5 -21 10 -12 25 5 11
15 17 21 13 6 -4 20 -7 32 -8z m300 -2 c27 -10 18 -29 -14 -29 -22 0 -30 5
-30 18 0 17 16 22 44 11z m1521 -24 c-6 -10 -108 4 -112 16 -2 7 15 7 56 0 33
-5 58 -12 56 -16z m175 15 c0 -8 -4 -15 -10 -15 -5 0 -10 7 -10 15 0 8 5 15
10 15 6 0 10 -7 10 -15z m-1850 -10 c-12 -15 -30 -12 -30 6 0 5 10 9 21 9 18
0 19 -2 9 -15z m940 -1 c0 -2 -9 -4 -21 -4 -11 0 -18 4 -14 10 5 8 35 3 35 -6z
m880 6 c0 -5 -7 -10 -15 -10 -8 0 -15 5 -15 10 0 6 7 10 15 10 8 0 15 -4 15
-10z m-4153 -6 c-3 -3 -12 -4 -19 -1 -8 3 -5 6 6 6 11 1 17 -2 13 -5z m3383 2
c0 -3 -4 -8 -10 -11 -5 -3 -10 -1 -10 4 0 6 5 11 10 11 6 0 10 -2 10 -4z
m-840 -31 c0 -7 8 -16 18 -20 16 -6 16 -7 0 -19 -24 -18 -23 -33 4 -42 19 -6
19 -7 5 -16 -10 -5 -23 -6 -30 -1 -6 4 -4 -5 6 -21 20 -30 17 -56 -7 -56 -9 0
-13 -10 -12 -32 1 -22 -4 -33 -14 -35 -12 -3 -16 6 -17 37 -1 22 2 40 8 40 5
0 9 7 9 15 0 8 -4 15 -10 15 -5 0 -10 7 -10 15 0 8 6 15 13 15 9 0 9 2 -1 8
-9 7 -10 15 -3 35 7 18 7 27 -2 30 -9 3 -9 10 2 30 14 25 41 27 41 2z m-265 5
c4 -6 16 -8 27 -4 16 5 19 2 16 -13 -2 -10 -12 -18 -23 -18 -13 0 -21 -8 -23
-23 -3 -21 -2 -22 18 -12 19 10 21 9 18 -7 -2 -10 -11 -17 -21 -15 -10 2 -17
-3 -17 -12 0 -9 7 -13 20 -11 13 2 20 -2 20 -11 0 -8 -6 -14 -14 -14 -8 0 -16
-7 -20 -15 -3 -8 -2 -14 2 -14 44 7 40 -15 -5 -29 -45 -14 -72 0 -48 25 20 19
19 34 -1 26 -15 -5 -14 14 2 66 5 17 -23 51 -43 51 -7 0 -13 -6 -13 -14 0 -8
-8 -22 -17 -32 -10 -9 -16 -28 -15 -41 2 -16 -2 -23 -12 -23 -9 0 -16 -4 -16
-10 0 -5 5 -10 10 -10 6 0 10 -4 10 -10 0 -5 -11 -10 -25 -10 -26 0 -34 15
-12 23 8 4 9 8 2 14 -6 4 -12 39 -13 76 l-2 68 48 -5 c26 -2 54 -7 63 -10 10
-5 19 -1 22 8 7 18 52 22 62 6z m415 0 c0 -5 7 -10 16 -10 21 0 12 -24 -11
-28 -10 -3 -15 0 -11 7 4 7 -1 11 -13 11 -10 0 -21 -4 -23 -9 -1 -4 -12 -5
-23 -1 -18 7 -16 9 15 23 43 19 50 20 50 7z m2540 -4 c0 -3 -4 -8 -10 -11 -5
-3 -10 -1 -10 4 0 6 5 11 10 11 6 0 10 -2 10 -4z m-4180 -16 c0 -5 -2 -10 -4
-10 -3 0 -8 5 -11 10 -3 6 -1 10 4 10 6 0 11 -4 11 -10z m970 -4 c0 -3 -4 -8
-10 -11 -5 -3 -10 -1 -10 4 0 6 5 11 10 11 6 0 10 -2 10 -4z m348 -8 c-2 -6
-10 -14 -16 -16 -7 -2 -10 2 -6 12 7 18 28 22 22 4z m-1738 -8 c0 -5 -5 -10
-11 -10 -5 0 -7 5 -4 10 3 6 8 10 11 10 2 0 4 -4 4 -10z m212 -12 c-7 -7 -12
-8 -12 -2 0 6 3 14 7 17 3 4 9 5 12 2 2 -3 -1 -11 -7 -17z m7633 12 c-3 -5
-12 -7 -20 -3 -21 7 -19 13 6 13 11 0 18 -4 14 -10z m351 -17 c-10 -10 -19 5
-10 18 6 11 8 11 12 0 2 -7 1 -15 -2 -18z m-5456 7 c0 -5 -4 -10 -10 -10 -5 0
-10 5 -10 10 0 6 5 10 10 10 6 0 10 -4 10 -10z m2857 -12 c-3 -8 -6 -5 -6 6
-1 11 2 17 5 13 3 -3 4 -12 1 -19z m-5127 -18 c0 -5 -4 -10 -10 -10 -5 0 -10
5 -10 10 0 6 5 10 10 10 6 0 10 -4 10 -10z m520 0 c0 -5 -7 -10 -15 -10 -8 0
-18 0 -22 -1 -4 0 -9 4 -11 10 -2 6 8 11 22 11 14 0 26 -4 26 -10z m310 0 c0
-5 -5 -10 -11 -10 -5 0 -7 5 -4 10 3 6 8 10 11 10 2 0 4 -4 4 -10z m430 -10
c0 -5 -4 -10 -10 -10 -5 0 -10 5 -10 10 0 6 5 10 10 10 6 0 10 -4 10 -10z
m348 -4 c-13 -10 -15 -15 -6 -24 9 -9 8 -16 -5 -29 -9 -10 -17 -12 -17 -6 0 6
6 14 13 17 8 3 7 8 -5 16 -30 18 -18 35 27 39 6 0 2 -5 -7 -13z m-1092 -23
c-15 -4 -16 -7 -5 -14 12 -7 12 -10 1 -18 -8 -4 -13 -12 -12 -17 1 -5 -2 -10
-7 -11 -5 -2 -9 12 -10 32 -1 32 1 35 25 34 20 -1 22 -3 8 -6z m7934 -3 c-14
-4 -32 -8 -40 -9 -13 -1 -13 0 0 9 8 5 26 9 40 9 l25 -1 -25 -8z m-6884 -23
c4 -4 -2 -7 -14 -7 -12 0 -22 4 -22 9 0 10 26 9 36 -2z m-1376 -11 c0 -2 -7
-7 -16 -10 -8 -3 -12 -2 -9 4 6 10 25 14 25 6z m1340 -26 c0 -5 -4 -10 -10
-10 -5 0 -10 5 -10 10 0 6 5 10 10 10 6 0 10 -4 10 -10z m87 4 c-3 -3 -12 -4
-19 -1 -8 3 -5 6 6 6 11 1 17 -2 13 -5z m-1097 -13 c0 -12 -20 -25 -27 -18 -7
7 6 27 18 27 5 0 9 -4 9 -9z m1036 -6 c-8 -8 -20 -15 -26 -15 -16 0 12 29 28
30 10 0 10 -4 -2 -15z m62 -29 c0 -31 -30 -40 -52 -15 -9 11 -12 19 -6 19 5 0
12 -4 15 -10 11 -18 26 -10 20 10 -4 14 -2 20 8 20 9 0 15 -10 15 -24z m6835
17 c-7 -2 -21 -2 -30 0 -10 3 -4 5 12 5 17 0 24 -2 18 -5z m-7243 -35 c0 -5
-5 -6 -11 -3 -14 9 -59 -3 -59 -15 0 -6 7 -10 16 -10 8 0 12 -4 9 -10 -3 -5
-15 -10 -25 -10 -14 0 -18 7 -18 28 1 23 7 31 32 38 31 10 56 2 56 -18z m-700
12 c0 -5 -2 -10 -4 -10 -3 0 -8 5 -11 10 -3 6 -1 10 4 10 6 0 11 -4 11 -10z
m495 0 c3 -5 1 -10 -4 -10 -6 0 -11 5 -11 10 0 6 2 10 4 10 3 0 8 -4 11 -10z
m8015 1 c0 -6 -4 -13 -10 -16 -5 -3 -10 1 -10 9 0 9 5 16 10 16 6 0 10 -4 10
-9z m-1330 -11 c0 -5 -2 -10 -4 -10 -3 0 -8 5 -11 10 -3 6 -1 10 4 10 6 0 11
-4 11 -10z m435 -10 c3 -5 -1 -10 -9 -10 -9 0 -16 5 -16 10 0 6 4 10 9 10 6 0
13 -4 16 -10z m105 0 c0 -5 -2 -10 -4 -10 -3 0 -8 5 -11 10 -3 6 -1 10 4 10 6
0 11 -4 11 -10z m-7645 -30 c3 -5 1 -10 -4 -10 -6 0 -11 5 -11 10 0 6 2 10 4
10 3 0 8 -4 11 -10z m145 6 c0 -2 -7 -7 -16 -10 -8 -3 -12 -2 -9 4 6 10 25 14
25 6z m704 -17 c-3 -5 -14 -9 -25 -9 -10 0 -19 4 -19 9 0 5 11 9 25 9 13 0 22
-4 19 -9z m7351 1 c3 -5 1 -10 -4 -10 -6 0 -11 5 -11 10 0 6 2 10 4 10 3 0 8
-4 11 -10z m-668 -6 c-3 -3 -12 -4 -19 -1 -8 3 -5 6 6 6 11 1 17 -2 13 -5z
m118 -4 c-3 -5 -11 -10 -16 -10 -6 0 -7 5 -4 10 3 6 11 10 16 10 6 0 7 -4 4
-10z m-7862 -17 c-7 -2 -19 -2 -25 0 -7 3 -2 5 12 5 14 0 19 -2 13 -5z m8014
-15 c-3 -8 -6 -5 -6 6 -1 11 2 17 5 13 3 -3 4 -12 1 -19z m203 -8 c0 -5 -7
-10 -16 -10 -8 0 -12 5 -9 10 3 6 10 10 16 10 5 0 9 -4 9 -10z m-8410 -21 c0
-5 -9 -9 -20 -9 -11 0 -20 6 -20 14 0 9 7 12 20 9 11 -3 20 -9 20 -14z m195
11 c7 -11 6 -12 -57 -15 -45 -2 -57 3 -41 18 10 11 91 8 98 -3z m8690 -20 c3
-5 1 -10 -4 -10 -6 0 -11 5 -11 10 0 6 2 10 4 10 3 0 8 -4 11 -10z m-1730 -30
c-3 -5 -10 -10 -16 -10 -5 0 -9 5 -9 10 0 6 7 10 16 10 8 0 12 -4 9 -10z
m-7345 -10 c0 -5 -2 -10 -4 -10 -3 0 -8 5 -11 10 -3 6 -1 10 4 10 6 0 11 -4
11 -10z m167 -6 c-3 -3 -12 -4 -19 -1 -8 3 -5 6 6 6 11 1 17 -2 13 -5z m133 2
c0 -3 -4 -8 -10 -11 -5 -3 -10 -1 -10 4 0 6 5 11 10 11 6 0 10 -2 10 -4z
m8740 -12 c0 -8 -4 -12 -10 -9 -5 3 -10 10 -10 16 0 5 5 9 10 9 6 0 10 -7 10
-16z m-460 -4 c0 -5 -5 -10 -11 -10 -5 0 -7 5 -4 10 3 6 8 10 11 10 2 0 4 -4
4 -10z m260 0 c-8 -5 -19 -10 -25 -10 -5 0 -3 5 5 10 8 5 20 10 25 10 6 0 3
-5 -5 -10z m-620 -10 c-8 -5 -19 -10 -25 -10 -5 0 -3 5 5 10 8 5 20 10 25 10
6 0 3 -5 -5 -10z m420 0 c0 -5 -8 -10 -17 -10 -15 0 -16 2 -3 10 19 12 20 12
20 0z m-740 -4 c0 -3 -4 -8 -10 -11 -5 -3 -10 -1 -10 4 0 6 5 11 10 11 6 0 10
-2 10 -4z m1284 -31 c3 -8 2 -15 -3 -15 -5 0 -14 7 -21 15 -10 12 -10 15 3 15
8 0 17 -7 21 -15z m-1174 1 c0 -11 -19 -15 -25 -6 -3 5 1 10 9 10 9 0 16 -2
16 -4z m1065 -5 c-15 -13 -65 -23 -65 -12 0 5 12 12 28 14 15 2 31 5 37 6 6 0
6 -2 0 -8z m-478 -47 c-7 -7 -37 7 -37 17 0 6 9 5 21 -1 11 -7 19 -14 16 -16z
m396 19 c-7 -2 -21 -2 -30 0 -10 3 -4 5 12 5 17 0 24 -2 18 -5z m-768 -13 c-3
-5 -12 -7 -20 -3 -21 7 -19 13 6 13 11 0 18 -4 14 -10z m-185 -15 c-7 -9 -15
-13 -17 -11 -7 7 7 26 19 26 6 0 6 -6 -2 -15z m127 9 c-3 -3 -12 -4 -19 -1 -8
3 -5 6 6 6 11 1 17 -2 13 -5z m913 -28 c0 -11 -19 -15 -25 -6 -3 5 1 10 9 10
9 0 16 -2 16 -4z m-125 -74 c-3 -3 -11 0 -18 7 -9 10 -8 11 6 5 10 -3 15 -9
12 -12z m-738 -17 c9 -25 -4 -29 -17 -6 -7 15 -7 21 0 21 6 0 13 -7 17 -15z
m48 5 c3 -5 -1 -10 -10 -10 -9 0 -13 5 -10 10 3 6 8 10 10 10 2 0 7 -4 10 -10z
m-658 -46 c-3 -3 -12 -4 -19 -1 -8 3 -5 6 6 6 11 1 17 -2 13 -5z"/>
<path d="M5830 4159 c0 -5 5 -7 10 -4 6 3 10 8 10 11 0 2 -4 4 -10 4 -5 0 -10
-5 -10 -11z"/>
<path d="M1862 4019 c-23 -12 -51 -33 -62 -48 -21 -31 -62 -148 -81 -231 -6
-30 -18 -75 -25 -100 -7 -25 -23 -94 -34 -155 -12 -60 -27 -139 -35 -175 -8
-36 -18 -87 -24 -115 -5 -27 -14 -68 -20 -90 -5 -22 -15 -86 -21 -143 -6 -57
-14 -110 -17 -118 -12 -33 21 -8 132 98 106 102 143 145 267 321 50 71 90 148
123 237 33 88 46 260 26 326 -21 67 -45 118 -68 144 -13 14 -23 28 -23 33 0 9
-62 37 -82 37 -7 0 -32 -10 -56 -21z m55 -315 c-3 -3 -12 -4 -19 -1 -8 3 -5 6
6 6 11 1 17 -2 13 -5z m-47 -355 c0 -5 7 -9 15 -9 8 0 15 -5 15 -11 0 -6 -6
-9 -12 -6 -7 2 -21 -3 -31 -11 -16 -15 -17 -14 -11 2 5 14 3 17 -12 14 -11 -2
-18 -11 -16 -21 5 -29 -15 -19 -27 13 -10 30 -25 38 -36 20 -9 -15 -25 -12
-25 4 0 9 12 16 28 18 43 5 112 -3 112 -13z m-169 -1 c0 -7 2 -21 4 -31 2 -10
-3 -21 -10 -23 -8 -3 -11 -13 -7 -22 5 -15 3 -15 -11 -4 -9 8 -21 11 -27 7
-17 -10 -9 46 9 68 16 20 41 23 42 5z m246 4 c15 -10 5 -52 -10 -46 -7 2 -12
15 -12 29 0 27 3 29 22 17z m-100 -124 c-3 -7 -5 -2 -5 12 0 14 2 19 5 13 2
-7 2 -19 0 -25z m-27 8 c0 -3 -4 -8 -10 -11 -5 -3 -10 -1 -10 4 0 6 5 11 10
11 6 0 10 -2 10 -4z"/>
<path d="M1657 3316 c-3 -8 -2 -18 4 -22 16 -9 22 2 11 21 -8 15 -10 16 -15 1z"/>
<path d="M3307 3467 c-3 -8 -1 -20 4 -28 6 -10 9 -7 9 14 0 29 -5 35 -13 14z"/>
<path d="M806 3324 c-9 -24 -7 -28 9 -14 17 14 20 30 6 30 -5 0 -12 -7 -15
-16z"/>
<path d="M1080 3260 c0 -5 5 -10 10 -10 6 0 10 5 10 10 0 6 -4 10 -10 10 -5 0
-10 -4 -10 -10z"/>
<path d="M2851 3043 c-16 -96 -14 -121 16 -169 33 -51 62 -72 74 -52 16 25 14
142 -3 188 -12 32 -58 100 -68 100 -4 0 -13 -30 -19 -67z"/>
<path d="M4600 3009 c0 -5 5 -7 10 -4 6 3 10 8 10 11 0 2 -4 4 -10 4 -5 0 -10
-5 -10 -11z"/>
<path d="M4565 2960 c-3 -5 1 -10 9 -10 9 0 16 5 16 10 0 6 -4 10 -9 10 -6 0
-13 -4 -16 -10z"/>
<path d="M4570 2919 c0 -5 5 -7 10 -4 6 3 10 8 10 11 0 2 -4 4 -10 4 -5 0 -10
-5 -10 -11z"/>
<path d="M4532 2858 c6 -18 28 -21 28 -4 0 9 -7 16 -16 16 -9 0 -14 -5 -12
-12z"/>
<path d="M5242 2840 c7 -10 14 -18 15 -16 6 6 -9 36 -18 36 -5 0 -4 -9 3 -20z"/>
<path d="M4532 2819 c2 -6 8 -10 13 -10 5 0 11 4 13 10 2 6 -4 11 -13 11 -9 0
-15 -5 -13 -11z"/>
<path d="M5212 2762 c7 -9 13 -18 14 -20 1 -2 4 4 7 12 3 8 -2 16 -14 19 -17
5 -18 3 -7 -11z"/>
<path d="M4523 2752 c-13 -8 -7 -52 7 -52 4 0 10 14 12 30 5 31 1 35 -19 22z"/>
<path d="M5255 2749 c-4 -6 -5 -12 -2 -15 2 -3 7 2 10 11 7 17 1 20 -8 4z"/>
<path d="M2770 1914 c0 -14 3 -14 15 -4 8 7 15 14 15 16 0 2 -7 4 -15 4 -8 0
-15 -7 -15 -16z"/>
<path d="M2734 1884 c3 -9 6 -20 6 -25 0 -5 5 -9 10 -9 6 0 10 11 10 25 0 16
-6 25 -16 25 -11 0 -14 -5 -10 -16z"/>
<path d="M1230 1860 c0 -5 7 -10 15 -10 8 0 15 5 15 10 0 6 -7 10 -15 10 -8 0
-15 -4 -15 -10z"/>
<path d="M2556 1860 c7 -7 19 -7 35 -1 23 9 22 10 -10 10 -24 1 -32 -2 -25 -9z"/>
<path d="M2289 1819 c-9 -5 16 -9 65 -9 44 0 77 2 75 4 -10 8 -128 13 -140 5z"/>
<path d="M2453 1818 c-2 -5 35 -7 84 -7 90 2 83 6 -20 11 -33 2 -61 0 -64 -4z"/>
<path d="M2198 1813 c7 -3 16 -2 19 1 4 3 -2 6 -13 5 -11 0 -14 -3 -6 -6z"/>
<path d="M2525 1780 c3 -5 10 -10 16 -10 5 0 9 5 9 10 0 6 -7 10 -16 10 -8 0
-12 -4 -9 -10z"/>
<path d="M2485 1750 c-3 -5 -1 -10 4 -10 6 0 11 5 11 10 0 6 -2 10 -4 10 -3 0
-8 -4 -11 -10z"/>
<path d="M2095 1726 c11 -16 13 -26 6 -31 -12 -7 3 -45 17 -45 14 0 5 69 -11
84 -23 24 -30 19 -12 -8z"/>
<path d="M2618 1713 c7 -3 16 -2 19 1 4 3 -2 6 -13 5 -11 0 -14 -3 -6 -6z"/>
<path d="M6996 3051 c-3 -4 6 -6 19 -3 14 2 25 6 25 8 0 8 -39 4 -44 -5z"/>
<path d="M6377 2785 c-139 -48 -224 -90 -277 -136 -19 -16 -50 -36 -68 -44
-23 -10 -34 -23 -38 -44 -4 -17 -13 -36 -20 -42 -22 -18 -16 -50 16 -101 48
-77 120 -79 264 -7 88 44 146 97 213 194 41 60 74 208 49 218 -8 3 -71 -14
-139 -38z m13 -39 c0 -3 -4 -8 -10 -11 -5 -3 -10 -1 -10 4 0 6 5 11 10 11 6 0
10 -2 10 -4z m-77 -93 c-4 -10 -9 -11 -16 -4 -5 5 -7 18 -3 28 6 14 9 15 16 4
4 -8 6 -21 3 -28z"/>
<path d="M6410 2442 c-14 -15 -36 -35 -50 -45 -14 -9 -1 -6 28 8 37 18 52 31
52 45 0 25 0 25 -30 -8z"/>
<path d="M6250 2340 c-8 -5 -10 -10 -5 -10 6 0 17 5 25 10 8 5 11 10 5 10 -5
0 -17 -5 -25 -10z"/>
<path d="M2880 3640 c0 -5 5 -10 10 -10 6 0 10 5 10 10 0 6 -4 10 -10 10 -5 0
-10 -4 -10 -10z"/>
<path d="M4200 3619 c0 -5 5 -7 10 -4 6 3 10 8 10 11 0 2 -4 4 -10 4 -5 0 -10
-5 -10 -11z"/>
<path d="M5340 3587 c-16 -8 -27 -25 -32 -47 -4 -19 -12 -57 -18 -85 -5 -27
-13 -82 -16 -122 -5 -81 -6 -80 62 -42 67 37 76 46 103 104 44 92 31 173 -30
194 -39 14 -38 14 -69 -2z"/>
<path d="M2760 3580 c0 -5 5 -10 10 -10 6 0 10 5 10 10 0 6 -4 10 -10 10 -5 0
-10 -4 -10 -10z"/>
<path d="M7668 3573 c7 -3 16 -2 19 1 4 3 -2 6 -13 5 -11 0 -14 -3 -6 -6z"/>
<path d="M8645 3239 c-38 -27 -111 -124 -136 -178 -17 -39 -17 -43 -1 -62 9
-11 30 -27 46 -36 28 -15 30 -14 62 21 18 20 52 68 75 106 47 79 55 131 23
155 -26 19 -34 19 -69 -6z"/>
<path d="M9835 3114 c-33 -7 -72 -11 -86 -8 -23 4 -26 2 -26 -19 0 -39 -152
-278 -213 -336 -46 -43 -97 -63 -158 -60 -52 3 -56 1 -58 -22 -7 -80 -7 -96 0
-107 4 -7 2 -12 -4 -12 -6 0 -10 -19 -9 -47 2 -58 20 -143 30 -143 4 0 5 -10
1 -22 -4 -16 -2 -19 8 -13 10 6 12 4 7 -8 -13 -35 12 -73 64 -97 l50 -24 44
24 c59 32 317 297 406 415 12 17 59 66 105 110 80 77 84 82 88 132 2 28 9 61
16 73 8 15 8 25 1 34 -6 7 -7 17 -2 22 5 5 12 26 15 46 l7 37 -48 5 c-26 4
-70 11 -98 17 -27 6 -57 12 -65 14 -8 1 -42 -3 -75 -11z m-295 -514 c0 -5 -5
-10 -11 -10 -5 0 -7 5 -4 10 3 6 8 10 11 10 2 0 4 -4 4 -10z m240 -30 c0 -5
-4 -10 -10 -10 -5 0 -10 5 -10 10 0 6 5 10 10 10 6 0 10 -4 10 -10z m-316 -38
c7 -11 -4 -52 -14 -52 -4 0 -7 13 -6 30 1 29 10 38 20 22z m156 -12 c0 -5 -4
-10 -10 -10 -5 0 -10 5 -10 10 0 6 5 10 10 10 6 0 10 -4 10 -10z m-110 -250
c0 -5 -5 -10 -11 -10 -5 0 -7 5 -4 10 3 6 8 10 11 10 2 0 4 -4 4 -10z"/>
<path d="M9430 3029 c-62 -74 -100 -142 -68 -123 7 4 8 3 4 -4 -4 -7 -13 -12
-21 -12 -7 0 -16 -7 -19 -17 -7 -17 56 -83 79 -83 18 0 98 102 134 171 32 58
32 93 3 117 -33 25 -60 14 -112 -49z m50 -8 c0 -5 -7 -11 -15 -15 -15 -5 -20
5 -8 17 9 10 23 9 23 -2z"/>
<path d="M10368 3063 c6 -2 18 -2 25 0 6 3 1 5 -13 5 -14 0 -19 -2 -12 -5z"/>
<path d="M8542 2938 c5 -15 28 -23 28 -10 0 5 -7 13 -16 16 -10 4 -14 1 -12
-6z"/>
<path d="M9375 2770 c3 -5 10 -10 16 -10 5 0 9 5 9 10 0 6 -7 10 -16 10 -8 0
-12 -4 -9 -10z"/>
<path d="M10062 2570 c0 -14 2 -19 5 -12 2 6 2 18 0 25 -3 6 -5 1 -5 -13z"/>
<path d="M10029 2292 c-3 -20 -2 -29 4 -23 5 5 7 19 5 32 -3 20 -5 19 -9 -9z"/>
<path d="M10022 2175 c0 -16 2 -22 5 -12 2 9 2 23 0 30 -3 6 -5 -1 -5 -18z"/>
<path d="M8260 1980 c-8 -5 -34 -10 -56 -10 -48 0 -55 -12 -47 -84 6 -47 23
-75 23 -37 0 25 1 25 44 7 42 -18 83 -10 90 16 5 20 6 20 30 5 27 -18 81 -23
71 -8 -9 16 13 22 27 7 20 -19 58 -30 98 -27 45 4 45 4 30 41 -18 44 -80 76
-173 89 -95 13 -118 14 -137 1z m260 -110 c18 -12 2 -12 -25 0 -13 6 -15 9 -5
9 8 0 22 -4 30 -9z"/>
<path d="M9315 1880 c-8 -13 -1 -24 14 -19 6 3 7 10 2 18 -6 10 -10 10 -16 1z"/>
<path d="M10342 1883 c-12 -2 -20 -9 -17 -14 4 -5 13 -5 24 1 10 5 21 7 24 4
3 -3 8 -1 12 5 6 11 -2 12 -43 4z"/>
<path d="M5640 2979 c0 -5 5 -7 10 -4 6 3 10 8 10 11 0 2 -4 4 -10 4 -5 0 -10
-5 -10 -11z"/>
<path d="M5319 1981 c-25 -16 -56 -44 -67 -63 -27 -44 -28 -57 -3 -34 17 16
20 16 28 2 5 -9 23 -19 41 -22 25 -5 32 -3 32 9 0 9 5 19 12 23 7 5 8 3 3 -7
-7 -11 -6 -12 6 -2 17 14 39 0 39 -24 0 -15 16 -17 25 -3 4 6 11 8 16 4 5 -3
15 -1 22 4 27 21 61 21 84 0 17 -16 28 -19 50 -13 15 5 34 7 41 6 20 -3 14 14
-20 48 -44 45 -103 77 -166 90 -77 16 -93 14 -143 -18z"/>
<path d="M7823 1849 c14 -8 22 -8 30 0 8 8 3 11 -18 11 -26 -1 -28 -2 -12 -11z"/>
<path d="M7888 1843 c7 -3 16 -2 19 1 4 3 -2 6 -13 5 -11 0 -14 -3 -6 -6z"/>
<path d="M5212 1831 c-71 -18 -126 -323 -88 -485 41 -175 139 -263 312 -282
76 -8 123 6 176 54 123 111 181 330 143 543 -15 87 -55 176 -76 170 -14 -4
-49 -4 -309 2 -74 2 -145 1 -158 -2z m155 -98 c-3 -3 -11 -2 -17 2 -9 6 -9 10
1 16 14 8 27 -7 16 -18z m13 -48 c0 -12 -19 -12 -23 0 -4 9 -1 12 9 8 7 -3 14
-7 14 -8z m-16 -90 c-4 -8 -8 -15 -10 -15 -2 0 -4 7 -4 15 0 8 4 15 10 15 5 0
7 -7 4 -15z"/>
<path d="M3290 1650 c0 -5 5 -10 11 -10 5 0 7 5 4 10 -3 6 -8 10 -11 10 -2 0
-4 -4 -4 -10z"/>
<path d="M2896 1773 c-9 -9 -7 -33 3 -33 12 0 22 28 12 34 -5 3 -11 3 -15 -1z"/>
<path d="M2860 1740 c0 -5 5 -10 11 -10 5 0 7 5 4 10 -3 6 -8 10 -11 10 -2 0
-4 -4 -4 -10z"/>
<path d="M4978 4743 c12 -2 30 -2 40 0 9 3 -1 5 -23 4 -22 0 -30 -2 -17 -4z"/>
</g>
</svg>
